%TF.GenerationSoftware,KiCad,Pcbnew,(5.99.0-1734-g575ad7128)*%
%TF.CreationDate,2020-06-02T15:09:08-04:00*%
%TF.ProjectId,DG376_KiCad,44473337-365f-44b6-9943-61642e6b6963,rev?*%
%TF.SameCoordinates,Original*%
%TF.FileFunction,Legend,Top*%
%TF.FilePolarity,Positive*%
%FSLAX46Y46*%
G04 Gerber Fmt 4.6, Leading zero omitted, Abs format (unit mm)*
G04 Created by KiCad (PCBNEW (5.99.0-1734-g575ad7128)) date 2020-06-02 15:09:08*
%MOMM*%
%LPD*%
G01*
G04 APERTURE LIST*
%ADD10C,0.600000*%
%ADD11C,0.150000*%
%ADD12C,0.325000*%
%ADD13C,0.350000*%
%ADD14C,0.120000*%
G04 APERTURE END LIST*
D10*
X72290476Y-53714285D02*
X76290476Y-53714285D01*
X76290476Y-54285714D01*
X76100000Y-54628571D01*
X75719047Y-54857142D01*
X75338095Y-54971428D01*
X74576190Y-55085714D01*
X74004761Y-55085714D01*
X73242857Y-54971428D01*
X72861904Y-54857142D01*
X72480952Y-54628571D01*
X72290476Y-54285714D01*
X72290476Y-53714285D01*
X76100000Y-57371428D02*
X76290476Y-57142857D01*
X76290476Y-56800000D01*
X76100000Y-56457142D01*
X75719047Y-56228571D01*
X75338095Y-56114285D01*
X74576190Y-56000000D01*
X74004761Y-56000000D01*
X73242857Y-56114285D01*
X72861904Y-56228571D01*
X72480952Y-56457142D01*
X72290476Y-56800000D01*
X72290476Y-57028571D01*
X72480952Y-57371428D01*
X72671428Y-57485714D01*
X74004761Y-57485714D01*
X74004761Y-57028571D01*
X76290476Y-58285714D02*
X76290476Y-59771428D01*
X74766666Y-58971428D01*
X74766666Y-59314285D01*
X74576190Y-59542857D01*
X74385714Y-59657142D01*
X74004761Y-59771428D01*
X73052380Y-59771428D01*
X72671428Y-59657142D01*
X72480952Y-59542857D01*
X72290476Y-59314285D01*
X72290476Y-58628571D01*
X72480952Y-58400000D01*
X72671428Y-58285714D01*
X76290476Y-60571428D02*
X76290476Y-62171428D01*
X72290476Y-61142857D01*
X76290476Y-64114285D02*
X76290476Y-63657142D01*
X76100000Y-63428571D01*
X75909523Y-63314285D01*
X75338095Y-63085714D01*
X74576190Y-62971428D01*
X73052380Y-62971428D01*
X72671428Y-63085714D01*
X72480952Y-63200000D01*
X72290476Y-63428571D01*
X72290476Y-63885714D01*
X72480952Y-64114285D01*
X72671428Y-64228571D01*
X73052380Y-64342857D01*
X74004761Y-64342857D01*
X74385714Y-64228571D01*
X74576190Y-64114285D01*
X74766666Y-63885714D01*
X74766666Y-63428571D01*
X74576190Y-63200000D01*
X74385714Y-63085714D01*
X74004761Y-62971428D01*
X76290476Y-65028571D02*
X72290476Y-65828571D01*
X76290476Y-66628571D01*
D11*
X122666666Y-70928571D02*
X122809523Y-70976190D01*
X122857142Y-71023809D01*
X122904761Y-71119047D01*
X122904761Y-71261904D01*
X122857142Y-71357142D01*
X122809523Y-71404761D01*
X122714285Y-71452380D01*
X122333333Y-71452380D01*
X122333333Y-70452380D01*
X122666666Y-70452380D01*
X122761904Y-70500000D01*
X122809523Y-70547619D01*
X122857142Y-70642857D01*
X122857142Y-70738095D01*
X122809523Y-70833333D01*
X122761904Y-70880952D01*
X122666666Y-70928571D01*
X122333333Y-70928571D01*
X123190476Y-70452380D02*
X123761904Y-70452380D01*
X123476190Y-71452380D02*
X123476190Y-70452380D01*
X124095238Y-71452380D02*
X124095238Y-70452380D01*
X124666666Y-71452380D01*
X124666666Y-70452380D01*
X135908217Y-71233569D02*
X135566197Y-70293876D01*
X136123728Y-70851079D01*
X136192658Y-70065863D01*
X136534679Y-71005555D01*
X136790988Y-71013617D02*
X137506944Y-70753030D01*
X138235075Y-70386662D02*
X137758977Y-70053196D01*
X137698107Y-70582102D02*
X137356087Y-69642409D01*
X137714065Y-69512116D01*
X137819847Y-69524290D01*
X137880881Y-69552750D01*
X137958201Y-69625958D01*
X138007061Y-69760200D01*
X137994887Y-69865981D01*
X137966427Y-69927015D01*
X137893219Y-70004336D01*
X137535241Y-70134629D01*
X138576766Y-70211621D02*
X138727295Y-70207508D01*
X138951031Y-70126075D01*
X139024239Y-70048754D01*
X139052699Y-69987720D01*
X139064873Y-69881939D01*
X139032300Y-69792445D01*
X138954979Y-69719237D01*
X138893945Y-69690776D01*
X138788164Y-69678602D01*
X138592888Y-69699002D01*
X138487107Y-69686828D01*
X138426073Y-69658367D01*
X138348753Y-69585159D01*
X138316179Y-69495665D01*
X138328353Y-69389884D01*
X138356814Y-69328850D01*
X138430022Y-69251529D01*
X138653758Y-69170096D01*
X138804287Y-69165983D01*
X139056483Y-69023516D02*
X139593451Y-68828076D01*
X139666987Y-69865488D02*
X139324967Y-68925796D01*
D12*
X118888095Y-63704761D02*
X118454761Y-62752380D01*
X118145238Y-63704761D02*
X118145238Y-61704761D01*
X118640476Y-61704761D01*
X118764285Y-61800000D01*
X118826190Y-61895238D01*
X118888095Y-62085714D01*
X118888095Y-62371428D01*
X118826190Y-62561904D01*
X118764285Y-62657142D01*
X118640476Y-62752380D01*
X118145238Y-62752380D01*
X119383333Y-63609523D02*
X119569047Y-63704761D01*
X119878571Y-63704761D01*
X120002380Y-63609523D01*
X120064285Y-63514285D01*
X120126190Y-63323809D01*
X120126190Y-63133333D01*
X120064285Y-62942857D01*
X120002380Y-62847619D01*
X119878571Y-62752380D01*
X119630952Y-62657142D01*
X119507142Y-62561904D01*
X119445238Y-62466666D01*
X119383333Y-62276190D01*
X119383333Y-62085714D01*
X119445238Y-61895238D01*
X119507142Y-61800000D01*
X119630952Y-61704761D01*
X119940476Y-61704761D01*
X120126190Y-61800000D01*
X120497619Y-61704761D02*
X121240476Y-61704761D01*
X120869047Y-63704761D02*
X120869047Y-61704761D01*
D13*
X110114285Y-62942857D02*
X111257142Y-62942857D01*
X110685714Y-63704761D02*
X110685714Y-62180952D01*
X112757142Y-63704761D02*
X111900000Y-63704761D01*
X112328571Y-63704761D02*
X112328571Y-61704761D01*
X112185714Y-61990476D01*
X112042857Y-62180952D01*
X111900000Y-62276190D01*
D11*
X129559523Y-53452380D02*
X129226190Y-52976190D01*
X128988095Y-53452380D02*
X128988095Y-52452380D01*
X129369047Y-52452380D01*
X129464285Y-52500000D01*
X129511904Y-52547619D01*
X129559523Y-52642857D01*
X129559523Y-52785714D01*
X129511904Y-52880952D01*
X129464285Y-52928571D01*
X129369047Y-52976190D01*
X128988095Y-52976190D01*
X130511904Y-52500000D02*
X130416666Y-52452380D01*
X130273809Y-52452380D01*
X130130952Y-52500000D01*
X130035714Y-52595238D01*
X129988095Y-52690476D01*
X129940476Y-52880952D01*
X129940476Y-53023809D01*
X129988095Y-53214285D01*
X130035714Y-53309523D01*
X130130952Y-53404761D01*
X130273809Y-53452380D01*
X130369047Y-53452380D01*
X130511904Y-53404761D01*
X130559523Y-53357142D01*
X130559523Y-53023809D01*
X130369047Y-53023809D01*
X131321428Y-52928571D02*
X131464285Y-52976190D01*
X131511904Y-53023809D01*
X131559523Y-53119047D01*
X131559523Y-53261904D01*
X131511904Y-53357142D01*
X131464285Y-53404761D01*
X131369047Y-53452380D01*
X130988095Y-53452380D01*
X130988095Y-52452380D01*
X131321428Y-52452380D01*
X131416666Y-52500000D01*
X131464285Y-52547619D01*
X131511904Y-52642857D01*
X131511904Y-52738095D01*
X131464285Y-52833333D01*
X131416666Y-52880952D01*
X131321428Y-52928571D01*
X130988095Y-52928571D01*
X130766666Y-50752380D02*
X131100000Y-51752380D01*
X131433333Y-50752380D01*
X132100000Y-51228571D02*
X132242857Y-51276190D01*
X132290476Y-51323809D01*
X132338095Y-51419047D01*
X132338095Y-51561904D01*
X132290476Y-51657142D01*
X132242857Y-51704761D01*
X132147619Y-51752380D01*
X131766666Y-51752380D01*
X131766666Y-50752380D01*
X132100000Y-50752380D01*
X132195238Y-50800000D01*
X132242857Y-50847619D01*
X132290476Y-50942857D01*
X132290476Y-51038095D01*
X132242857Y-51133333D01*
X132195238Y-51180952D01*
X132100000Y-51228571D01*
X131766666Y-51228571D01*
D14*
X98500000Y-66000000D02*
X98500000Y-67000000D01*
X93500000Y-66500000D02*
X93500000Y-66000000D01*
X90000000Y-67450000D02*
X93500000Y-66500000D01*
X97950000Y-67450000D02*
X98500000Y-67000000D01*
X101000000Y-66750000D02*
X101000000Y-66000000D01*
X101950000Y-67450000D02*
X101000000Y-66750000D01*
X96000000Y-67000000D02*
X96000000Y-66000000D01*
X94500000Y-67500000D02*
X96000000Y-67000000D01*
X103750000Y-69250000D02*
G75*
G03*
X103750000Y-69250000I-1800000J0D01*
G01*
X99750000Y-69250000D02*
G75*
G03*
X99750000Y-69250000I-1800000J0D01*
G01*
X95750000Y-69250000D02*
G75*
G03*
X95750000Y-69250000I-1800000J0D01*
G01*
X91800000Y-69250000D02*
G75*
G03*
X91800000Y-69250000I-1800000J0D01*
G01*
D11*
X89714285Y-70154761D02*
X88857142Y-70154761D01*
X89285714Y-70154761D02*
X89285714Y-68154761D01*
X89142857Y-68440476D01*
X89000000Y-68630952D01*
X88857142Y-68726190D01*
X90642857Y-68154761D02*
X90785714Y-68154761D01*
X90928571Y-68250000D01*
X91000000Y-68345238D01*
X91071428Y-68535714D01*
X91142857Y-68916666D01*
X91142857Y-69392857D01*
X91071428Y-69773809D01*
X91000000Y-69964285D01*
X90928571Y-70059523D01*
X90785714Y-70154761D01*
X90642857Y-70154761D01*
X90500000Y-70059523D01*
X90428571Y-69964285D01*
X90357142Y-69773809D01*
X90285714Y-69392857D01*
X90285714Y-68916666D01*
X90357142Y-68535714D01*
X90428571Y-68345238D01*
X90500000Y-68250000D01*
X90642857Y-68154761D01*
X92857142Y-68345238D02*
X92928571Y-68250000D01*
X93071428Y-68154761D01*
X93428571Y-68154761D01*
X93571428Y-68250000D01*
X93642857Y-68345238D01*
X93714285Y-68535714D01*
X93714285Y-68726190D01*
X93642857Y-69011904D01*
X92785714Y-70154761D01*
X93714285Y-70154761D01*
X94642857Y-68154761D02*
X94785714Y-68154761D01*
X94928571Y-68250000D01*
X95000000Y-68345238D01*
X95071428Y-68535714D01*
X95142857Y-68916666D01*
X95142857Y-69392857D01*
X95071428Y-69773809D01*
X95000000Y-69964285D01*
X94928571Y-70059523D01*
X94785714Y-70154761D01*
X94642857Y-70154761D01*
X94500000Y-70059523D01*
X94428571Y-69964285D01*
X94357142Y-69773809D01*
X94285714Y-69392857D01*
X94285714Y-68916666D01*
X94357142Y-68535714D01*
X94428571Y-68345238D01*
X94500000Y-68250000D01*
X94642857Y-68154761D01*
X96785714Y-68154761D02*
X97714285Y-68154761D01*
X97214285Y-68916666D01*
X97428571Y-68916666D01*
X97571428Y-69011904D01*
X97642857Y-69107142D01*
X97714285Y-69297619D01*
X97714285Y-69773809D01*
X97642857Y-69964285D01*
X97571428Y-70059523D01*
X97428571Y-70154761D01*
X97000000Y-70154761D01*
X96857142Y-70059523D01*
X96785714Y-69964285D01*
X98642857Y-68154761D02*
X98785714Y-68154761D01*
X98928571Y-68250000D01*
X99000000Y-68345238D01*
X99071428Y-68535714D01*
X99142857Y-68916666D01*
X99142857Y-69392857D01*
X99071428Y-69773809D01*
X99000000Y-69964285D01*
X98928571Y-70059523D01*
X98785714Y-70154761D01*
X98642857Y-70154761D01*
X98500000Y-70059523D01*
X98428571Y-69964285D01*
X98357142Y-69773809D01*
X98285714Y-69392857D01*
X98285714Y-68916666D01*
X98357142Y-68535714D01*
X98428571Y-68345238D01*
X98500000Y-68250000D01*
X98642857Y-68154761D01*
X101571428Y-68154761D02*
X101285714Y-68154761D01*
X101142857Y-68250000D01*
X101071428Y-68345238D01*
X100928571Y-68630952D01*
X100857142Y-69011904D01*
X100857142Y-69773809D01*
X100928571Y-69964285D01*
X101000000Y-70059523D01*
X101142857Y-70154761D01*
X101428571Y-70154761D01*
X101571428Y-70059523D01*
X101642857Y-69964285D01*
X101714285Y-69773809D01*
X101714285Y-69297619D01*
X101642857Y-69107142D01*
X101571428Y-69011904D01*
X101428571Y-68916666D01*
X101142857Y-68916666D01*
X101000000Y-69011904D01*
X100928571Y-69107142D01*
X100857142Y-69297619D01*
X102642857Y-68154761D02*
X102785714Y-68154761D01*
X102928571Y-68250000D01*
X103000000Y-68345238D01*
X103071428Y-68535714D01*
X103142857Y-68916666D01*
X103142857Y-69392857D01*
X103071428Y-69773809D01*
X103000000Y-69964285D01*
X102928571Y-70059523D01*
X102785714Y-70154761D01*
X102642857Y-70154761D01*
X102500000Y-70059523D01*
X102428571Y-69964285D01*
X102357142Y-69773809D01*
X102285714Y-69392857D01*
X102285714Y-68916666D01*
X102357142Y-68535714D01*
X102428571Y-68345238D01*
X102500000Y-68250000D01*
X102642857Y-68154761D01*
D14*
X75000001Y-69249999D02*
G75*
G02*
X75000001Y-50750001I4999999J9249999D01*
G01*
X87882419Y-53113060D02*
G75*
G02*
X87999999Y-66749999I-7882419J-6886940D01*
G01*
%TO.C,G\u002A\u002A\u002A*%
G36*
X131048627Y-62156083D02*
G01*
X131174040Y-62175922D01*
X131291453Y-62210903D01*
X131358630Y-62240286D01*
X131388141Y-62256291D01*
X131430365Y-62280765D01*
X131479996Y-62310566D01*
X131531729Y-62342549D01*
X131539445Y-62347406D01*
X131640230Y-62408800D01*
X131729194Y-62457492D01*
X131810624Y-62494925D01*
X131888803Y-62522543D01*
X131968017Y-62541788D01*
X132052550Y-62554104D01*
X132146687Y-62560933D01*
X132176944Y-62562111D01*
X132302939Y-62562285D01*
X132416154Y-62553119D01*
X132521194Y-62533275D01*
X132622667Y-62501412D01*
X132725179Y-62456191D01*
X132833337Y-62396273D01*
X132907511Y-62349683D01*
X132959224Y-62317075D01*
X133014819Y-62283798D01*
X133065914Y-62254799D01*
X133090034Y-62241966D01*
X133139235Y-62219591D01*
X133195205Y-62198602D01*
X133252473Y-62180592D01*
X133305570Y-62167154D01*
X133349027Y-62159881D01*
X133372995Y-62159549D01*
X133399361Y-62162954D01*
X133350653Y-62242648D01*
X133242607Y-62400626D01*
X133115155Y-62553336D01*
X132970080Y-62698748D01*
X132883321Y-62774963D01*
X132722549Y-62896500D01*
X132551140Y-63000189D01*
X132368331Y-63086378D01*
X132173361Y-63155421D01*
X131965469Y-63207666D01*
X131926878Y-63215264D01*
X131892292Y-63219956D01*
X131841879Y-63224386D01*
X131779909Y-63228409D01*
X131710651Y-63231878D01*
X131638374Y-63234646D01*
X131567347Y-63236568D01*
X131501839Y-63237496D01*
X131446120Y-63237283D01*
X131404458Y-63235785D01*
X131385654Y-63233842D01*
X131361963Y-63230077D01*
X131324773Y-63224474D01*
X131281809Y-63218194D01*
X131278481Y-63217716D01*
X131093931Y-63181035D01*
X130909672Y-63124724D01*
X130729290Y-63050331D01*
X130556375Y-62959406D01*
X130394514Y-62853496D01*
X130340718Y-62812845D01*
X130311336Y-62788521D01*
X130274148Y-62755863D01*
X130232018Y-62717604D01*
X130187813Y-62676476D01*
X130144397Y-62635211D01*
X130104637Y-62596540D01*
X130071396Y-62563197D01*
X130047542Y-62537912D01*
X130035939Y-62523418D01*
X130035275Y-62521618D01*
X130044499Y-62514546D01*
X130067614Y-62505178D01*
X130077962Y-62501870D01*
X130128044Y-62482522D01*
X130194175Y-62449755D01*
X130275892Y-62403817D01*
X130372732Y-62344957D01*
X130388945Y-62334769D01*
X130454166Y-62294057D01*
X130505804Y-62263125D01*
X130548088Y-62239821D01*
X130585242Y-62221996D01*
X130621494Y-62207497D01*
X130661069Y-62194176D01*
X130671803Y-62190831D01*
X130792766Y-62163196D01*
X130919955Y-62151727D01*
X131048627Y-62156083D01*
G37*
G36*
X133686569Y-61238587D02*
G01*
X133671073Y-61376527D01*
X133642592Y-61525482D01*
X133602283Y-61680356D01*
X133551298Y-61836052D01*
X133551289Y-61836076D01*
X133518286Y-61927173D01*
X133435282Y-61930426D01*
X133334532Y-61937426D01*
X133242692Y-61951040D01*
X133155649Y-61972722D01*
X133069289Y-62003924D01*
X132979496Y-62046101D01*
X132882157Y-62100706D01*
X132789621Y-62158488D01*
X132695174Y-62216776D01*
X132611276Y-62261738D01*
X132533202Y-62295085D01*
X132456229Y-62318529D01*
X132375631Y-62333783D01*
X132286683Y-62342557D01*
X132280549Y-62342941D01*
X132223849Y-62344319D01*
X132160498Y-62342778D01*
X132109072Y-62339086D01*
X131983116Y-62315313D01*
X131859189Y-62270692D01*
X131742418Y-62208623D01*
X131689081Y-62175786D01*
X131631697Y-62140467D01*
X131578927Y-62107997D01*
X131554061Y-62092702D01*
X131445051Y-62032379D01*
X131337364Y-61987447D01*
X131226052Y-61956569D01*
X131106171Y-61938410D01*
X130972772Y-61931635D01*
X130956962Y-61931527D01*
X130847354Y-61934133D01*
X130751739Y-61943301D01*
X130663418Y-61960008D01*
X130575689Y-61985231D01*
X130565781Y-61988570D01*
X130517766Y-62006254D01*
X130471424Y-62026476D01*
X130422488Y-62051484D01*
X130366694Y-62083528D01*
X130299777Y-62124855D01*
X130263907Y-62147717D01*
X130182649Y-62198753D01*
X130115081Y-62238481D01*
X130057863Y-62268612D01*
X130007658Y-62290855D01*
X129961127Y-62306923D01*
X129943878Y-62311723D01*
X129906158Y-62320354D01*
X129884008Y-62321839D01*
X129872874Y-62316400D01*
X129872039Y-62315260D01*
X129843586Y-62269673D01*
X129809298Y-62210842D01*
X129772484Y-62144835D01*
X129736454Y-62077721D01*
X129704518Y-62015570D01*
X129679984Y-61964450D01*
X129676575Y-61956810D01*
X129622466Y-61820338D01*
X129575493Y-61675351D01*
X129537250Y-61528032D01*
X129509331Y-61384562D01*
X129493329Y-61251124D01*
X129492809Y-61243946D01*
X129485529Y-61139452D01*
X133693107Y-61139452D01*
X133686569Y-61238587D01*
G37*
G36*
X130997945Y-60284166D02*
G01*
X131072778Y-60354422D01*
X131149444Y-60426174D01*
X131225356Y-60497017D01*
X131297926Y-60564546D01*
X131364568Y-60626357D01*
X131422693Y-60680045D01*
X131469715Y-60723204D01*
X131495734Y-60746853D01*
X131589160Y-60831173D01*
X131704433Y-60726249D01*
X131751398Y-60683221D01*
X131808604Y-60630383D01*
X131870732Y-60572669D01*
X131932466Y-60515015D01*
X131975106Y-60474976D01*
X132043518Y-60410663D01*
X132098096Y-60359705D01*
X132140521Y-60320668D01*
X132172473Y-60292118D01*
X132195635Y-60272620D01*
X132211686Y-60260739D01*
X132222307Y-60255042D01*
X132229180Y-60254094D01*
X132232472Y-60255368D01*
X132242706Y-60264028D01*
X132266895Y-60285636D01*
X132303266Y-60318574D01*
X132350049Y-60361227D01*
X132405470Y-60411977D01*
X132467757Y-60469208D01*
X132535139Y-60531304D01*
X132550928Y-60545880D01*
X132618946Y-60608441D01*
X132682120Y-60666066D01*
X132738711Y-60717206D01*
X132786985Y-60760313D01*
X132825204Y-60793840D01*
X132851633Y-60816239D01*
X132864534Y-60825962D01*
X132865435Y-60826233D01*
X132874826Y-60818487D01*
X132898031Y-60797799D01*
X132933203Y-60765861D01*
X132978492Y-60724365D01*
X133032051Y-60675004D01*
X133092032Y-60619469D01*
X133144872Y-60570362D01*
X133210531Y-60509315D01*
X133272825Y-60451532D01*
X133329606Y-60398999D01*
X133378726Y-60353695D01*
X133418035Y-60317605D01*
X133445387Y-60292709D01*
X133456558Y-60282752D01*
X133496534Y-60248072D01*
X133559569Y-60302898D01*
X133622605Y-60357725D01*
X133646065Y-60499411D01*
X133655066Y-60553465D01*
X133663073Y-60600980D01*
X133669307Y-60637375D01*
X133672989Y-60658070D01*
X133673336Y-60659848D01*
X133667724Y-60660661D01*
X133649608Y-60648728D01*
X133621884Y-60626208D01*
X133590631Y-60598224D01*
X133555025Y-60565784D01*
X133524991Y-60539615D01*
X133504048Y-60522706D01*
X133496072Y-60517848D01*
X133486193Y-60524865D01*
X133463196Y-60544469D01*
X133429508Y-60574486D01*
X133387556Y-60612748D01*
X133339767Y-60657081D01*
X133325369Y-60670570D01*
X133262823Y-60729000D01*
X133192682Y-60794038D01*
X133121144Y-60859967D01*
X133054410Y-60921069D01*
X133012032Y-60959573D01*
X132861354Y-61095855D01*
X132796915Y-61040031D01*
X132779154Y-61024554D01*
X132760849Y-61008358D01*
X132740368Y-60989930D01*
X132716077Y-60967756D01*
X132686346Y-60940323D01*
X132649539Y-60906117D01*
X132604027Y-60863624D01*
X132548174Y-60811331D01*
X132480350Y-60747725D01*
X132398921Y-60671291D01*
X132378179Y-60651815D01*
X132333105Y-60609798D01*
X132293137Y-60573120D01*
X132260998Y-60544233D01*
X132239410Y-60525589D01*
X132231431Y-60519642D01*
X132220744Y-60525388D01*
X132197168Y-60543539D01*
X132163430Y-60571817D01*
X132122259Y-60607947D01*
X132083718Y-60642891D01*
X132031491Y-60690927D01*
X131968717Y-60748693D01*
X131900605Y-60811393D01*
X131832368Y-60874228D01*
X131769217Y-60932403D01*
X131767257Y-60934208D01*
X131588727Y-61098712D01*
X131484762Y-61003871D01*
X131434930Y-60958225D01*
X131380608Y-60908166D01*
X131329076Y-60860414D01*
X131294809Y-60828448D01*
X131211930Y-60750951D01*
X131143186Y-60687104D01*
X131087220Y-60635741D01*
X131042676Y-60595698D01*
X131008199Y-60565808D01*
X130982433Y-60544905D01*
X130964023Y-60531824D01*
X130951613Y-60525399D01*
X130943847Y-60524465D01*
X130942106Y-60525144D01*
X130930217Y-60534661D01*
X130905048Y-60556774D01*
X130868918Y-60589376D01*
X130824146Y-60630362D01*
X130773051Y-60677627D01*
X130731772Y-60716119D01*
X130657232Y-60785841D01*
X130596287Y-60842785D01*
X130546896Y-60888831D01*
X130507020Y-60925863D01*
X130474617Y-60955762D01*
X130447647Y-60980412D01*
X130424070Y-61001694D01*
X130401844Y-61021490D01*
X130378929Y-61041684D01*
X130376948Y-61043423D01*
X130316722Y-61096280D01*
X130177389Y-60970503D01*
X130124325Y-60922256D01*
X130061046Y-60864170D01*
X129992878Y-60801170D01*
X129925148Y-60738176D01*
X129864430Y-60681287D01*
X129813723Y-60633923D01*
X129768037Y-60591948D01*
X129729726Y-60557467D01*
X129701141Y-60532584D01*
X129684634Y-60519403D01*
X129681735Y-60517848D01*
X129670697Y-60524780D01*
X129647777Y-60543560D01*
X129616529Y-60571163D01*
X129586982Y-60598453D01*
X129553086Y-60629074D01*
X129526317Y-60650813D01*
X129509491Y-60661547D01*
X129505170Y-60660077D01*
X129508303Y-60642791D01*
X129514133Y-60608944D01*
X129521878Y-60563125D01*
X129530758Y-60509925D01*
X129532501Y-60499411D01*
X129555961Y-60357725D01*
X129682855Y-60247355D01*
X129706343Y-60268119D01*
X129719632Y-60280200D01*
X129746373Y-60304778D01*
X129784312Y-60339764D01*
X129831192Y-60383071D01*
X129884760Y-60432611D01*
X129942760Y-60486296D01*
X130002937Y-60542038D01*
X130063035Y-60597749D01*
X130120800Y-60651341D01*
X130173976Y-60700727D01*
X130220308Y-60743818D01*
X130246273Y-60768010D01*
X130278873Y-60798081D01*
X130300043Y-60815504D01*
X130314022Y-60822252D01*
X130325051Y-60820302D01*
X130337371Y-60811627D01*
X130338315Y-60810879D01*
X130351938Y-60799042D01*
X130379226Y-60774458D01*
X130418152Y-60738983D01*
X130466690Y-60694475D01*
X130522816Y-60642789D01*
X130584502Y-60585781D01*
X130631373Y-60542344D01*
X130696060Y-60482444D01*
X130756875Y-60426358D01*
X130811750Y-60375976D01*
X130858615Y-60333188D01*
X130895402Y-60299886D01*
X130920042Y-60277959D01*
X130929031Y-60270331D01*
X130958547Y-60247114D01*
X130997945Y-60284166D01*
G37*
G36*
X129721768Y-60760163D02*
G01*
X129769312Y-60778534D01*
X129806095Y-60811100D01*
X129829660Y-60853249D01*
X129837552Y-60900369D01*
X129827313Y-60947846D01*
X129824713Y-60953421D01*
X129791299Y-61000378D01*
X129748279Y-61029198D01*
X129698466Y-61038858D01*
X129644672Y-61028338D01*
X129632563Y-61023204D01*
X129589814Y-60992662D01*
X129563401Y-60950449D01*
X129554490Y-60900039D01*
X129564250Y-60844906D01*
X129568710Y-60833222D01*
X129593816Y-60798601D01*
X129632914Y-60772933D01*
X129679356Y-60759391D01*
X129721768Y-60760163D01*
G37*
G36*
X131003672Y-60764799D02*
G01*
X131046530Y-60788845D01*
X131081284Y-60828523D01*
X131088847Y-60842142D01*
X131102001Y-60890569D01*
X131096233Y-60939120D01*
X131073473Y-60982964D01*
X131035653Y-61017270D01*
X131014452Y-61028219D01*
X130968379Y-61041407D01*
X130926900Y-61037763D01*
X130892491Y-61023332D01*
X130852316Y-60991066D01*
X130827487Y-60947463D01*
X130819415Y-60897473D01*
X130829509Y-60846043D01*
X130837221Y-60829311D01*
X130869483Y-60788640D01*
X130910847Y-60764477D01*
X130957010Y-60756603D01*
X131003672Y-60764799D01*
G37*
G36*
X132274910Y-60768857D02*
G01*
X132316715Y-60794692D01*
X132343929Y-60833577D01*
X132359170Y-60886850D01*
X132355526Y-60938021D01*
X132334318Y-60982946D01*
X132296867Y-61017483D01*
X132282874Y-61025099D01*
X132235843Y-61040540D01*
X132191755Y-61038199D01*
X132161750Y-61027762D01*
X132118250Y-60999225D01*
X132090667Y-60961324D01*
X132078142Y-60918032D01*
X132079813Y-60873324D01*
X132094820Y-60831173D01*
X132122301Y-60795555D01*
X132161396Y-60770444D01*
X132211244Y-60759813D01*
X132219808Y-60759715D01*
X132274910Y-60768857D01*
G37*
G36*
X133538913Y-60771261D02*
G01*
X133544455Y-60773634D01*
X133581246Y-60794471D01*
X133603474Y-60820124D01*
X133609856Y-60833222D01*
X133623630Y-60888751D01*
X133618630Y-60940247D01*
X133596035Y-60984203D01*
X133557029Y-61017112D01*
X133546003Y-61022686D01*
X133504078Y-61038227D01*
X133469703Y-61040808D01*
X133433661Y-61030819D01*
X133426391Y-61027762D01*
X133382606Y-60998470D01*
X133353990Y-60958232D01*
X133341247Y-60911713D01*
X133345080Y-60863578D01*
X133366193Y-60818490D01*
X133390820Y-60791917D01*
X133436491Y-60764511D01*
X133485127Y-60757713D01*
X133538913Y-60771261D01*
G37*
G36*
X130347053Y-60312220D02*
G01*
X130387992Y-60334669D01*
X130420245Y-60365297D01*
X130428821Y-60378845D01*
X130440487Y-60420934D01*
X130440123Y-60469805D01*
X130427964Y-60514664D01*
X130425745Y-60519223D01*
X130404403Y-60544216D01*
X130370761Y-60568208D01*
X130333535Y-60585993D01*
X130303207Y-60592399D01*
X130284106Y-60588168D01*
X130254949Y-60577518D01*
X130242293Y-60572042D01*
X130200149Y-60543214D01*
X130173983Y-60505163D01*
X130162856Y-60461826D01*
X130165826Y-60417140D01*
X130181953Y-60375040D01*
X130210297Y-60339465D01*
X130249917Y-60314351D01*
X130299872Y-60303634D01*
X130306449Y-60303502D01*
X130347053Y-60312220D01*
G37*
G36*
X131632706Y-60312256D02*
G01*
X131674986Y-60335072D01*
X131707507Y-60366783D01*
X131714897Y-60378845D01*
X131726563Y-60420934D01*
X131726199Y-60469805D01*
X131714040Y-60514664D01*
X131711821Y-60519223D01*
X131683388Y-60552959D01*
X131641778Y-60576925D01*
X131594133Y-60588176D01*
X131552219Y-60585052D01*
X131507766Y-60563621D01*
X131474328Y-60527688D01*
X131454061Y-60482267D01*
X131449115Y-60432372D01*
X131461646Y-60383018D01*
X131463669Y-60378845D01*
X131490826Y-60345265D01*
X131530713Y-60318798D01*
X131574715Y-60304611D01*
X131589283Y-60303502D01*
X131632706Y-60312256D01*
G37*
G36*
X132952970Y-60321570D02*
G01*
X132992294Y-60350966D01*
X133011690Y-60378845D01*
X133023189Y-60420016D01*
X133023379Y-60467995D01*
X133012409Y-60511475D01*
X133009873Y-60516789D01*
X132978403Y-60556254D01*
X132935413Y-60580155D01*
X132885441Y-60587126D01*
X132833025Y-60575802D01*
X132825163Y-60572408D01*
X132781470Y-60541884D01*
X132755271Y-60499060D01*
X132746909Y-60446039D01*
X132755001Y-60393865D01*
X132780317Y-60352777D01*
X132810117Y-60327938D01*
X132856204Y-60308623D01*
X132905714Y-60306978D01*
X132952970Y-60321570D01*
G37*
G36*
X131070467Y-58944802D02*
G01*
X131178115Y-58962305D01*
X131276259Y-58989714D01*
X131346091Y-59019172D01*
X131369776Y-59032392D01*
X131406988Y-59054541D01*
X131453261Y-59082902D01*
X131504128Y-59114760D01*
X131522927Y-59126703D01*
X131632206Y-59193411D01*
X131730608Y-59246272D01*
X131822374Y-59286630D01*
X131911746Y-59315830D01*
X132002966Y-59335219D01*
X132100276Y-59346140D01*
X132207919Y-59349940D01*
X132226962Y-59349976D01*
X132365875Y-59343885D01*
X132491591Y-59325241D01*
X132609269Y-59292558D01*
X132724070Y-59244348D01*
X132841154Y-59179122D01*
X132859470Y-59167628D01*
X132914704Y-59132936D01*
X132969919Y-59099042D01*
X133021913Y-59067827D01*
X133067484Y-59041173D01*
X133103431Y-59020963D01*
X133126553Y-59009078D01*
X133133212Y-59006709D01*
X133140466Y-59015998D01*
X133154769Y-59041725D01*
X133174600Y-59080682D01*
X133198441Y-59129657D01*
X133224772Y-59185442D01*
X133252074Y-59244828D01*
X133278826Y-59304604D01*
X133303511Y-59361562D01*
X133320447Y-59402204D01*
X133369172Y-59525892D01*
X133416856Y-59654616D01*
X133461993Y-59783863D01*
X133503070Y-59909118D01*
X133538580Y-60025867D01*
X133567013Y-60129598D01*
X133576166Y-60166857D01*
X133583109Y-60196329D01*
X129595457Y-60196329D01*
X129602400Y-60166857D01*
X129621986Y-60090993D01*
X129648230Y-60000079D01*
X129679547Y-59898849D01*
X129714352Y-59792040D01*
X129751060Y-59684386D01*
X129788087Y-59580624D01*
X129823846Y-59485488D01*
X129856754Y-59403714D01*
X129861838Y-59391745D01*
X129882712Y-59343048D01*
X129977749Y-59319194D01*
X130068685Y-59290121D01*
X130170638Y-59246237D01*
X130280637Y-59188973D01*
X130395707Y-59119758D01*
X130405021Y-59113761D01*
X130488077Y-59061913D01*
X130559735Y-59022072D01*
X130624917Y-58992345D01*
X130688542Y-58970840D01*
X130755531Y-58955664D01*
X130830803Y-58944926D01*
X130849111Y-58942956D01*
X130958928Y-58938065D01*
X131070467Y-58944802D01*
G37*
G36*
X131699781Y-57689901D02*
G01*
X131800315Y-57704065D01*
X131897630Y-57729779D01*
X131998468Y-57768665D01*
X132066203Y-57800340D01*
X132171270Y-57859500D01*
X132281651Y-57934984D01*
X132393703Y-58023643D01*
X132503781Y-58122331D01*
X132608243Y-58227898D01*
X132703443Y-58337196D01*
X132737217Y-58380081D01*
X132765841Y-58418588D01*
X132799541Y-58465547D01*
X132836421Y-58518134D01*
X132874583Y-58573522D01*
X132912130Y-58628888D01*
X132947164Y-58681407D01*
X132977789Y-58728253D01*
X133002105Y-58766602D01*
X133018217Y-58793630D01*
X133024227Y-58806512D01*
X133024068Y-58807129D01*
X133013362Y-58813557D01*
X132989106Y-58827404D01*
X132956501Y-58845700D01*
X132955739Y-58846125D01*
X132921580Y-58865866D01*
X132875295Y-58893587D01*
X132822802Y-58925702D01*
X132770021Y-58958621D01*
X132766892Y-58960595D01*
X132681587Y-59012010D01*
X132607127Y-59051105D01*
X132538618Y-59080110D01*
X132471166Y-59101255D01*
X132443599Y-59107964D01*
X132374695Y-59119493D01*
X132293542Y-59126807D01*
X132208987Y-59129510D01*
X132129873Y-59127201D01*
X132092996Y-59123786D01*
X132022225Y-59112602D01*
X131955931Y-59096081D01*
X131890008Y-59072521D01*
X131820347Y-59040216D01*
X131742841Y-58997464D01*
X131653384Y-58942560D01*
X131648228Y-58939276D01*
X131545339Y-58876127D01*
X131453821Y-58826063D01*
X131369296Y-58787630D01*
X131287387Y-58759374D01*
X131203716Y-58739841D01*
X131113904Y-58727577D01*
X131013574Y-58721126D01*
X130989114Y-58720327D01*
X130877188Y-58719862D01*
X130780621Y-58725793D01*
X130694074Y-58738949D01*
X130612207Y-58760158D01*
X130529680Y-58790248D01*
X130524618Y-58792343D01*
X130496461Y-58804536D01*
X130467722Y-58818173D01*
X130435848Y-58834706D01*
X130398285Y-58855589D01*
X130352480Y-58882274D01*
X130295880Y-58916214D01*
X130225931Y-58958860D01*
X130151864Y-59004401D01*
X130111585Y-59028211D01*
X130072741Y-59049480D01*
X130043399Y-59063802D01*
X130042190Y-59064313D01*
X130003479Y-59080488D01*
X130040602Y-59006771D01*
X130087378Y-58919343D01*
X130144983Y-58820435D01*
X130210320Y-58714863D01*
X130280294Y-58607444D01*
X130351808Y-58502994D01*
X130421766Y-58406327D01*
X130453299Y-58364862D01*
X130558730Y-58239251D01*
X130674225Y-58120615D01*
X130796422Y-58011778D01*
X130921954Y-57915567D01*
X131047457Y-57834810D01*
X131145976Y-57783042D01*
X131257373Y-57737266D01*
X131365999Y-57706869D01*
X131479254Y-57690226D01*
X131589283Y-57685666D01*
X131699781Y-57689901D01*
G37*
%TO.C,SW3*%
X102800000Y-57400000D02*
X91700000Y-57400000D01*
X91700000Y-63600000D02*
X102800000Y-63600000D01*
X91700000Y-63600000D02*
X91700000Y-57400000D01*
X102800000Y-57400000D02*
X102800000Y-63600000D01*
%TO.C,SW7*%
X128850000Y-48915000D02*
X124350000Y-48915000D01*
X128850000Y-52685000D02*
X124350000Y-52685000D01*
X128850000Y-52685000D02*
X128850000Y-48915000D01*
X124350000Y-48915000D02*
X124350000Y-52685000D01*
%TO.C,R7*%
X138723986Y-55248867D02*
X138780518Y-54928255D01*
X137719482Y-55071745D02*
X137776014Y-54751133D01*
%TO.C,R6*%
X139552369Y-58168880D02*
X139782574Y-57938675D01*
X138831120Y-57447631D02*
X139061325Y-57217426D01*
%TO.C,R4*%
X139474765Y-61284752D02*
X139789230Y-61200492D01*
X139210770Y-60299508D02*
X139525235Y-60215248D01*
%TO.C,R3*%
X138460770Y-64200492D02*
X138775235Y-64284752D01*
X138724765Y-63215248D02*
X139039230Y-63299508D01*
%TO.C,C3*%
X123837221Y-55610000D02*
X124162779Y-55610000D01*
X123837221Y-54590000D02*
X124162779Y-54590000D01*
%TO.C,J1*%
X123150000Y-56490000D02*
X124480000Y-56490000D01*
X124480000Y-56490000D02*
X124480000Y-57250000D01*
X124480000Y-57885000D02*
X124480000Y-61755000D01*
X123457530Y-61755000D02*
X124480000Y-61755000D01*
X121820000Y-61755000D02*
X122842470Y-61755000D01*
X121820000Y-57885000D02*
X121820000Y-61755000D01*
X123910000Y-57885000D02*
X124480000Y-57885000D01*
X121820000Y-57885000D02*
X122390000Y-57885000D01*
%TO.C,Y1*%
X129325000Y-67125000D02*
X130675000Y-67125000D01*
X129325000Y-68875000D02*
X130675000Y-68875000D01*
%TO.C,U1*%
X128190000Y-64110000D02*
X128190000Y-65425000D01*
X127890000Y-64110000D02*
X128190000Y-64110000D01*
X127890000Y-63810000D02*
X127890000Y-64110000D01*
X127890000Y-56890000D02*
X128190000Y-56890000D01*
X127890000Y-57190000D02*
X127890000Y-56890000D01*
X135110000Y-64110000D02*
X134810000Y-64110000D01*
X135110000Y-63810000D02*
X135110000Y-64110000D01*
X135110000Y-56890000D02*
X134810000Y-56890000D01*
X135110000Y-57190000D02*
X135110000Y-56890000D01*
%TO.C,SW6*%
X122050000Y-65050000D02*
X122050000Y-68950000D01*
X124950000Y-68950000D02*
X124950000Y-65050000D01*
%TO.C,SW5*%
X138380302Y-66026612D02*
X134715501Y-67360491D01*
X135707360Y-70085600D02*
X139372161Y-68751721D01*
%TO.C,SW4*%
X113250000Y-64500000D02*
X114726000Y-64500000D01*
X119250000Y-64500000D02*
X117774000Y-64500000D01*
X119250000Y-70500000D02*
X117774000Y-70500000D01*
X113250000Y-70500000D02*
X114726000Y-70500000D01*
X113250000Y-70500000D02*
X113250000Y-64500000D01*
X119250000Y-70500000D02*
X119250000Y-64500000D01*
%TO.C,SW2*%
X111000000Y-70500000D02*
X109524000Y-70500000D01*
X105000000Y-70500000D02*
X106476000Y-70500000D01*
X105000000Y-64500000D02*
X106476000Y-64500000D01*
X111000000Y-64500000D02*
X109524000Y-64500000D01*
X111000000Y-64500000D02*
X111000000Y-70500000D01*
X105000000Y-64500000D02*
X105000000Y-70500000D01*
%TO.C,SW1*%
X92138000Y-49000000D02*
X97980000Y-49000000D01*
X92138000Y-52048000D02*
X92138000Y-49000000D01*
X97980000Y-52048000D02*
X92138000Y-52048000D01*
X97980000Y-49000000D02*
X97980000Y-52048000D01*
%TO.C,R12*%
X109237221Y-60210000D02*
X109562779Y-60210000D01*
X109237221Y-59190000D02*
X109562779Y-59190000D01*
%TO.C,R11*%
X113462779Y-59390000D02*
X113137221Y-59390000D01*
X113462779Y-60410000D02*
X113137221Y-60410000D01*
%TO.C,R10*%
X119240000Y-58587221D02*
X119240000Y-58912779D01*
X120260000Y-58587221D02*
X120260000Y-58912779D01*
%TO.C,R9*%
X117740000Y-58587221D02*
X117740000Y-58912779D01*
X118760000Y-58587221D02*
X118760000Y-58912779D01*
%TO.C,R8*%
X116240000Y-58587221D02*
X116240000Y-58912779D01*
X117260000Y-58587221D02*
X117260000Y-58912779D01*
%TO.C,R5*%
X136030518Y-53101745D02*
X135973986Y-52781133D01*
X135026014Y-53278867D02*
X134969482Y-52958255D01*
%TO.C,Q1*%
X104140000Y-58120000D02*
X105600000Y-58120000D01*
X104140000Y-61280000D02*
X106300000Y-61280000D01*
X104140000Y-61280000D02*
X104140000Y-60350000D01*
X104140000Y-58120000D02*
X104140000Y-59050000D01*
%TO.C,M1*%
X101070255Y-52623045D02*
X104259742Y-53477665D01*
X100794399Y-50708408D02*
X100531439Y-51689789D01*
X101727655Y-50169593D02*
X104917142Y-51024213D01*
X114250000Y-53500000D02*
G75*
G03*
X114250000Y-53500000I-5000000J0D01*
G01*
%TO.C,D6*%
X143721553Y-64962221D02*
X141742685Y-63819721D01*
X142986553Y-66235279D02*
X143721553Y-64962221D01*
X141007685Y-65092779D02*
X142986553Y-66235279D01*
%TO.C,D5*%
X132765000Y-48765000D02*
X132765000Y-51050000D01*
X134235000Y-48765000D02*
X132765000Y-48765000D01*
X134235000Y-51050000D02*
X134235000Y-48765000D01*
%TO.C,D4*%
X138612221Y-50003447D02*
X137469721Y-51982315D01*
X139885279Y-50738447D02*
X138612221Y-50003447D01*
X138742779Y-52717315D02*
X139885279Y-50738447D01*
%TO.C,D3*%
X142936553Y-53814721D02*
X140957685Y-54957221D01*
X143671553Y-55087779D02*
X142936553Y-53814721D01*
X141692685Y-56230279D02*
X143671553Y-55087779D01*
%TO.C,D2*%
X144797500Y-59365000D02*
X142512500Y-59365000D01*
X144797500Y-60835000D02*
X144797500Y-59365000D01*
X142512500Y-60835000D02*
X144797500Y-60835000D01*
%TO.C,D1*%
X115550000Y-55000000D02*
X115550000Y-50000000D01*
X119850000Y-48900000D02*
X120950000Y-48900000D01*
X120950000Y-48900000D02*
X120950000Y-55000000D01*
%TO.C,C2*%
X131950279Y-69740000D02*
X131624721Y-69740000D01*
X131950279Y-70760000D02*
X131624721Y-70760000D01*
%TO.C,C1*%
X128087221Y-70760000D02*
X128412779Y-70760000D01*
X128087221Y-69740000D02*
X128412779Y-69740000D01*
%TO.C,BT1*%
X87920000Y-67300000D02*
X84800000Y-70500000D01*
X87920000Y-52700000D02*
X84800000Y-49500000D01*
X87920000Y-52700000D02*
X87920000Y-67300000D01*
X84800000Y-70500000D02*
X75800000Y-70500000D01*
X75800000Y-49500000D02*
X84800000Y-49500000D01*
%TD*%
M02*
