M48
; DRILL file {KiCad (5.99.0-1734-g575ad7128)} date Tuesday, June 02, 2020 at 02:55:43 PM
; FORMAT={-:-/ absolute / inch / decimal}
; #@! TF.CreationDate,2020-06-02T14:55:43-04:00
; #@! TF.GenerationSoftware,Kicad,Pcbnew,(5.99.0-1734-g575ad7128)
; #@! TF.FileFunction,Plated,1,2,PTH
FMAT,2
INCH
T1C0.0157
T2C0.0236
T3C0.0276
T4C0.0335
%
G90
G05
T1
X4.3346Y-2.5591
X4.3898Y-2.3937
X4.5394Y-2.3661
X4.6693Y-2.5236
X4.7087Y-2.5861
X4.7815Y-2.565
X4.9173Y-1.9783
X4.9331Y-2.5256
X4.9409Y-2.3366
X4.9951Y-2.0236
X5.0236Y-1.9724
X5.0866Y-2.3858
X5.0906Y-2.4409
X5.1572Y-2.426
X5.2323Y-2.4606
X5.2436Y-2.6147
X5.2756Y-2.4606
T2
X3.9624Y-2.0569
X3.9831Y-1.9797
T3
X4.8484Y-2.2539
X4.8484Y-2.3039
X4.8484Y-2.3539
X4.8484Y-2.4039
T4
X3.6831Y-1.9882
X3.8012Y-1.9882
T0
M30
