%TF.GenerationSoftware,KiCad,Pcbnew,(5.99.0-1734-g575ad7128)*%
%TF.CreationDate,2020-06-02T15:09:08-04:00*%
%TF.ProjectId,DG376_KiCad,44473337-365f-44b6-9943-61642e6b6963,rev?*%
%TF.SameCoordinates,Original*%
%TF.FileFunction,Soldermask,Top*%
%TF.FilePolarity,Negative*%
%FSLAX46Y46*%
G04 Gerber Fmt 4.6, Leading zero omitted, Abs format (unit mm)*
G04 Created by KiCad (PCBNEW (5.99.0-1734-g575ad7128)) date 2020-06-02 15:09:08*
%MOMM*%
%LPD*%
G01*
G04 APERTURE LIST*
%ADD10O,1.100000X1.100000*%
%ADD11C,0.950000*%
%ADD12C,0.900000*%
G04 APERTURE END LIST*
%TO.C,SW3*%
G36*
G01*
X101660000Y-55300000D02*
X101660000Y-56800000D01*
G75*
G02*
X101610000Y-56850000I-50000J0D01*
G01*
X100510000Y-56850000D01*
G75*
G02*
X100460000Y-56800000I0J50000D01*
G01*
X100460000Y-55300000D01*
G75*
G02*
X100510000Y-55250000I50000J0D01*
G01*
X101610000Y-55250000D01*
G75*
G02*
X101660000Y-55300000I0J-50000D01*
G01*
G37*
G36*
G01*
X99120000Y-55300000D02*
X99120000Y-56800000D01*
G75*
G02*
X99070000Y-56850000I-50000J0D01*
G01*
X97970000Y-56850000D01*
G75*
G02*
X97920000Y-56800000I0J50000D01*
G01*
X97920000Y-55300000D01*
G75*
G02*
X97970000Y-55250000I50000J0D01*
G01*
X99070000Y-55250000D01*
G75*
G02*
X99120000Y-55300000I0J-50000D01*
G01*
G37*
G36*
G01*
X96580000Y-55300000D02*
X96580000Y-56800000D01*
G75*
G02*
X96530000Y-56850000I-50000J0D01*
G01*
X95430000Y-56850000D01*
G75*
G02*
X95380000Y-56800000I0J50000D01*
G01*
X95380000Y-55300000D01*
G75*
G02*
X95430000Y-55250000I50000J0D01*
G01*
X96530000Y-55250000D01*
G75*
G02*
X96580000Y-55300000I0J-50000D01*
G01*
G37*
G36*
G01*
X94040000Y-55300000D02*
X94040000Y-56800000D01*
G75*
G02*
X93990000Y-56850000I-50000J0D01*
G01*
X92890000Y-56850000D01*
G75*
G02*
X92840000Y-56800000I0J50000D01*
G01*
X92840000Y-55300000D01*
G75*
G02*
X92890000Y-55250000I50000J0D01*
G01*
X93990000Y-55250000D01*
G75*
G02*
X94040000Y-55300000I0J-50000D01*
G01*
G37*
G36*
G01*
X101660000Y-64200000D02*
X101660000Y-65700000D01*
G75*
G02*
X101610000Y-65750000I-50000J0D01*
G01*
X100510000Y-65750000D01*
G75*
G02*
X100460000Y-65700000I0J50000D01*
G01*
X100460000Y-64200000D01*
G75*
G02*
X100510000Y-64150000I50000J0D01*
G01*
X101610000Y-64150000D01*
G75*
G02*
X101660000Y-64200000I0J-50000D01*
G01*
G37*
G36*
G01*
X99120000Y-64200000D02*
X99120000Y-65700000D01*
G75*
G02*
X99070000Y-65750000I-50000J0D01*
G01*
X97970000Y-65750000D01*
G75*
G02*
X97920000Y-65700000I0J50000D01*
G01*
X97920000Y-64200000D01*
G75*
G02*
X97970000Y-64150000I50000J0D01*
G01*
X99070000Y-64150000D01*
G75*
G02*
X99120000Y-64200000I0J-50000D01*
G01*
G37*
G36*
G01*
X96580000Y-64200000D02*
X96580000Y-65700000D01*
G75*
G02*
X96530000Y-65750000I-50000J0D01*
G01*
X95430000Y-65750000D01*
G75*
G02*
X95380000Y-65700000I0J50000D01*
G01*
X95380000Y-64200000D01*
G75*
G02*
X95430000Y-64150000I50000J0D01*
G01*
X96530000Y-64150000D01*
G75*
G02*
X96580000Y-64200000I0J-50000D01*
G01*
G37*
G36*
G01*
X94040000Y-64200000D02*
X94040000Y-65700000D01*
G75*
G02*
X93990000Y-65750000I-50000J0D01*
G01*
X92890000Y-65750000D01*
G75*
G02*
X92840000Y-65700000I0J50000D01*
G01*
X92840000Y-64200000D01*
G75*
G02*
X92890000Y-64150000I50000J0D01*
G01*
X93990000Y-64150000D01*
G75*
G02*
X94040000Y-64200000I0J-50000D01*
G01*
G37*
%TD*%
%TO.C,SW7*%
G36*
G01*
X129050000Y-51005000D02*
X130300000Y-51005000D01*
G75*
G02*
X130350000Y-51055000I0J-50000D01*
G01*
X130350000Y-51815000D01*
G75*
G02*
X130300000Y-51865000I-50000J0D01*
G01*
X129050000Y-51865000D01*
G75*
G02*
X129000000Y-51815000I0J50000D01*
G01*
X129000000Y-51055000D01*
G75*
G02*
X129050000Y-51005000I50000J0D01*
G01*
G37*
G36*
G01*
X129050000Y-49735000D02*
X130300000Y-49735000D01*
G75*
G02*
X130350000Y-49785000I0J-50000D01*
G01*
X130350000Y-50545000D01*
G75*
G02*
X130300000Y-50595000I-50000J0D01*
G01*
X129050000Y-50595000D01*
G75*
G02*
X129000000Y-50545000I0J50000D01*
G01*
X129000000Y-49785000D01*
G75*
G02*
X129050000Y-49735000I50000J0D01*
G01*
G37*
G36*
G01*
X122900000Y-51005000D02*
X124150000Y-51005000D01*
G75*
G02*
X124200000Y-51055000I0J-50000D01*
G01*
X124200000Y-51815000D01*
G75*
G02*
X124150000Y-51865000I-50000J0D01*
G01*
X122900000Y-51865000D01*
G75*
G02*
X122850000Y-51815000I0J50000D01*
G01*
X122850000Y-51055000D01*
G75*
G02*
X122900000Y-51005000I50000J0D01*
G01*
G37*
G36*
G01*
X122900000Y-49735000D02*
X124150000Y-49735000D01*
G75*
G02*
X124200000Y-49785000I0J-50000D01*
G01*
X124200000Y-50545000D01*
G75*
G02*
X124150000Y-50595000I-50000J0D01*
G01*
X122900000Y-50595000D01*
G75*
G02*
X122850000Y-50545000I0J50000D01*
G01*
X122850000Y-49785000D01*
G75*
G02*
X122900000Y-49735000I50000J0D01*
G01*
G37*
%TD*%
%TO.C,R7*%
G36*
G01*
X138579072Y-54753396D02*
X138025117Y-54655719D01*
G75*
G02*
X137827397Y-54373345I42327J240047D01*
G01*
X137912051Y-53893252D01*
G75*
G02*
X138194425Y-53695532I240047J-42327D01*
G01*
X138748379Y-53793209D01*
G75*
G02*
X138946099Y-54075583I-42327J-240047D01*
G01*
X138861445Y-54555676D01*
G75*
G02*
X138579071Y-54753396I-240047J42327D01*
G01*
G37*
G36*
G01*
X138305576Y-56304468D02*
X137751621Y-56206791D01*
G75*
G02*
X137553901Y-55924417I42327J240047D01*
G01*
X137638555Y-55444324D01*
G75*
G02*
X137920929Y-55246604I240047J-42327D01*
G01*
X138474883Y-55344281D01*
G75*
G02*
X138672603Y-55626655I-42327J-240047D01*
G01*
X138587949Y-56106748D01*
G75*
G02*
X138305575Y-56304468I-240047J42327D01*
G01*
G37*
%TD*%
%TO.C,R6*%
G36*
G01*
X139717853Y-57679894D02*
X139320106Y-57282146D01*
G75*
G02*
X139320106Y-56937432I172357J172357D01*
G01*
X139664820Y-56592718D01*
G75*
G02*
X140009534Y-56592718I172357J-172357D01*
G01*
X140407282Y-56990466D01*
G75*
G02*
X140407282Y-57335180I-172357J-172357D01*
G01*
X140062568Y-57679894D01*
G75*
G02*
X139717854Y-57679894I-172357J172357D01*
G01*
G37*
G36*
G01*
X138604159Y-58793588D02*
X138206412Y-58395840D01*
G75*
G02*
X138206412Y-58051126I172357J172357D01*
G01*
X138551126Y-57706412D01*
G75*
G02*
X138895840Y-57706412I172357J-172357D01*
G01*
X139293588Y-58104160D01*
G75*
G02*
X139293588Y-58448874I-172357J-172357D01*
G01*
X138948874Y-58793588D01*
G75*
G02*
X138604160Y-58793588I-172357J172357D01*
G01*
G37*
%TD*%
%TO.C,R4*%
G36*
G01*
X139862571Y-60944021D02*
X139716986Y-60400688D01*
G75*
G02*
X139889343Y-60102157I235444J63087D01*
G01*
X140360232Y-59975982D01*
G75*
G02*
X140658763Y-60148339I63087J-235444D01*
G01*
X140804348Y-60691672D01*
G75*
G02*
X140631991Y-60990203I-235444J-63087D01*
G01*
X140161102Y-61116378D01*
G75*
G02*
X139862571Y-60944021I-63087J235444D01*
G01*
G37*
G36*
G01*
X138341237Y-61351661D02*
X138195652Y-60808328D01*
G75*
G02*
X138368009Y-60509797I235444J63087D01*
G01*
X138838898Y-60383622D01*
G75*
G02*
X139137429Y-60555979I63087J-235444D01*
G01*
X139283014Y-61099312D01*
G75*
G02*
X139110657Y-61397843I-235444J-63087D01*
G01*
X138639768Y-61524018D01*
G75*
G02*
X138341237Y-61351661I-63087J235444D01*
G01*
G37*
%TD*%
%TO.C,R3*%
G36*
G01*
X138966985Y-64099312D02*
X139112571Y-63555979D01*
G75*
G02*
X139411102Y-63383622I235444J-63087D01*
G01*
X139881991Y-63509797D01*
G75*
G02*
X140054348Y-63808328I-63087J-235444D01*
G01*
X139908763Y-64351661D01*
G75*
G02*
X139610232Y-64524018I-235444J63087D01*
G01*
X139139343Y-64397843D01*
G75*
G02*
X138966986Y-64099312I63087J235444D01*
G01*
G37*
G36*
G01*
X137445651Y-63691672D02*
X137591237Y-63148339D01*
G75*
G02*
X137889768Y-62975982I235444J-63087D01*
G01*
X138360657Y-63102157D01*
G75*
G02*
X138533014Y-63400688I-63087J-235444D01*
G01*
X138387429Y-63944021D01*
G75*
G02*
X138088898Y-64116378I-235444J63087D01*
G01*
X137618009Y-63990203D01*
G75*
G02*
X137445652Y-63691672I63087J235444D01*
G01*
G37*
%TD*%
%TO.C,C3*%
G36*
G01*
X124300000Y-55381250D02*
X124300000Y-54818750D01*
G75*
G02*
X124543750Y-54575000I243750J0D01*
G01*
X125031250Y-54575000D01*
G75*
G02*
X125275000Y-54818750I0J-243750D01*
G01*
X125275000Y-55381250D01*
G75*
G02*
X125031250Y-55625000I-243750J0D01*
G01*
X124543750Y-55625000D01*
G75*
G02*
X124300000Y-55381250I0J243750D01*
G01*
G37*
G36*
G01*
X122725000Y-55381250D02*
X122725000Y-54818750D01*
G75*
G02*
X122968750Y-54575000I243750J0D01*
G01*
X123456250Y-54575000D01*
G75*
G02*
X123700000Y-54818750I0J-243750D01*
G01*
X123700000Y-55381250D01*
G75*
G02*
X123456250Y-55625000I-243750J0D01*
G01*
X122968750Y-55625000D01*
G75*
G02*
X122725000Y-55381250I0J243750D01*
G01*
G37*
%TD*%
D10*
%TO.C,J1*%
X123150000Y-61060000D03*
X123150000Y-59790000D03*
X123150000Y-58520000D03*
G36*
G01*
X122600000Y-57750000D02*
X122600000Y-56750000D01*
G75*
G02*
X122650000Y-56700000I50000J0D01*
G01*
X123650000Y-56700000D01*
G75*
G02*
X123700000Y-56750000I0J-50000D01*
G01*
X123700000Y-57750000D01*
G75*
G02*
X123650000Y-57800000I-50000J0D01*
G01*
X122650000Y-57800000D01*
G75*
G02*
X122600000Y-57750000I0J50000D01*
G01*
G37*
%TD*%
%TO.C,Y1*%
G36*
G01*
X128200000Y-68900000D02*
X128200000Y-67100000D01*
G75*
G02*
X128250000Y-67050000I50000J0D01*
G01*
X129250000Y-67050000D01*
G75*
G02*
X129300000Y-67100000I0J-50000D01*
G01*
X129300000Y-68900000D01*
G75*
G02*
X129250000Y-68950000I-50000J0D01*
G01*
X128250000Y-68950000D01*
G75*
G02*
X128200000Y-68900000I0J50000D01*
G01*
G37*
G36*
G01*
X130700000Y-68900000D02*
X130700000Y-67100000D01*
G75*
G02*
X130750000Y-67050000I50000J0D01*
G01*
X131750000Y-67050000D01*
G75*
G02*
X131800000Y-67100000I0J-50000D01*
G01*
X131800000Y-68900000D01*
G75*
G02*
X131750000Y-68950000I-50000J0D01*
G01*
X130750000Y-68950000D01*
G75*
G02*
X130700000Y-68900000I0J50000D01*
G01*
G37*
%TD*%
%TO.C,U1*%
G36*
G01*
X127975000Y-63600000D02*
X126675000Y-63600000D01*
G75*
G02*
X126525000Y-63450000I0J150000D01*
G01*
X126525000Y-63150000D01*
G75*
G02*
X126675000Y-63000000I150000J0D01*
G01*
X127975000Y-63000000D01*
G75*
G02*
X128125000Y-63150000I0J-150000D01*
G01*
X128125000Y-63450000D01*
G75*
G02*
X127975000Y-63600000I-150000J0D01*
G01*
G37*
G36*
G01*
X127975000Y-62800000D02*
X126675000Y-62800000D01*
G75*
G02*
X126525000Y-62650000I0J150000D01*
G01*
X126525000Y-62350000D01*
G75*
G02*
X126675000Y-62200000I150000J0D01*
G01*
X127975000Y-62200000D01*
G75*
G02*
X128125000Y-62350000I0J-150000D01*
G01*
X128125000Y-62650000D01*
G75*
G02*
X127975000Y-62800000I-150000J0D01*
G01*
G37*
G36*
G01*
X127975000Y-62000000D02*
X126675000Y-62000000D01*
G75*
G02*
X126525000Y-61850000I0J150000D01*
G01*
X126525000Y-61550000D01*
G75*
G02*
X126675000Y-61400000I150000J0D01*
G01*
X127975000Y-61400000D01*
G75*
G02*
X128125000Y-61550000I0J-150000D01*
G01*
X128125000Y-61850000D01*
G75*
G02*
X127975000Y-62000000I-150000J0D01*
G01*
G37*
G36*
G01*
X127975000Y-61200000D02*
X126675000Y-61200000D01*
G75*
G02*
X126525000Y-61050000I0J150000D01*
G01*
X126525000Y-60750000D01*
G75*
G02*
X126675000Y-60600000I150000J0D01*
G01*
X127975000Y-60600000D01*
G75*
G02*
X128125000Y-60750000I0J-150000D01*
G01*
X128125000Y-61050000D01*
G75*
G02*
X127975000Y-61200000I-150000J0D01*
G01*
G37*
G36*
G01*
X127975000Y-60400000D02*
X126675000Y-60400000D01*
G75*
G02*
X126525000Y-60250000I0J150000D01*
G01*
X126525000Y-59950000D01*
G75*
G02*
X126675000Y-59800000I150000J0D01*
G01*
X127975000Y-59800000D01*
G75*
G02*
X128125000Y-59950000I0J-150000D01*
G01*
X128125000Y-60250000D01*
G75*
G02*
X127975000Y-60400000I-150000J0D01*
G01*
G37*
G36*
G01*
X127975000Y-59600000D02*
X126675000Y-59600000D01*
G75*
G02*
X126525000Y-59450000I0J150000D01*
G01*
X126525000Y-59150000D01*
G75*
G02*
X126675000Y-59000000I150000J0D01*
G01*
X127975000Y-59000000D01*
G75*
G02*
X128125000Y-59150000I0J-150000D01*
G01*
X128125000Y-59450000D01*
G75*
G02*
X127975000Y-59600000I-150000J0D01*
G01*
G37*
G36*
G01*
X127975000Y-58800000D02*
X126675000Y-58800000D01*
G75*
G02*
X126525000Y-58650000I0J150000D01*
G01*
X126525000Y-58350000D01*
G75*
G02*
X126675000Y-58200000I150000J0D01*
G01*
X127975000Y-58200000D01*
G75*
G02*
X128125000Y-58350000I0J-150000D01*
G01*
X128125000Y-58650000D01*
G75*
G02*
X127975000Y-58800000I-150000J0D01*
G01*
G37*
G36*
G01*
X127975000Y-58000000D02*
X126675000Y-58000000D01*
G75*
G02*
X126525000Y-57850000I0J150000D01*
G01*
X126525000Y-57550000D01*
G75*
G02*
X126675000Y-57400000I150000J0D01*
G01*
X127975000Y-57400000D01*
G75*
G02*
X128125000Y-57550000I0J-150000D01*
G01*
X128125000Y-57850000D01*
G75*
G02*
X127975000Y-58000000I-150000J0D01*
G01*
G37*
G36*
G01*
X128850000Y-57125000D02*
X128550000Y-57125000D01*
G75*
G02*
X128400000Y-56975000I0J150000D01*
G01*
X128400000Y-55675000D01*
G75*
G02*
X128550000Y-55525000I150000J0D01*
G01*
X128850000Y-55525000D01*
G75*
G02*
X129000000Y-55675000I0J-150000D01*
G01*
X129000000Y-56975000D01*
G75*
G02*
X128850000Y-57125000I-150000J0D01*
G01*
G37*
G36*
G01*
X129650000Y-57125000D02*
X129350000Y-57125000D01*
G75*
G02*
X129200000Y-56975000I0J150000D01*
G01*
X129200000Y-55675000D01*
G75*
G02*
X129350000Y-55525000I150000J0D01*
G01*
X129650000Y-55525000D01*
G75*
G02*
X129800000Y-55675000I0J-150000D01*
G01*
X129800000Y-56975000D01*
G75*
G02*
X129650000Y-57125000I-150000J0D01*
G01*
G37*
G36*
G01*
X130450000Y-57125000D02*
X130150000Y-57125000D01*
G75*
G02*
X130000000Y-56975000I0J150000D01*
G01*
X130000000Y-55675000D01*
G75*
G02*
X130150000Y-55525000I150000J0D01*
G01*
X130450000Y-55525000D01*
G75*
G02*
X130600000Y-55675000I0J-150000D01*
G01*
X130600000Y-56975000D01*
G75*
G02*
X130450000Y-57125000I-150000J0D01*
G01*
G37*
G36*
G01*
X131250000Y-57125000D02*
X130950000Y-57125000D01*
G75*
G02*
X130800000Y-56975000I0J150000D01*
G01*
X130800000Y-55675000D01*
G75*
G02*
X130950000Y-55525000I150000J0D01*
G01*
X131250000Y-55525000D01*
G75*
G02*
X131400000Y-55675000I0J-150000D01*
G01*
X131400000Y-56975000D01*
G75*
G02*
X131250000Y-57125000I-150000J0D01*
G01*
G37*
G36*
G01*
X132050000Y-57125000D02*
X131750000Y-57125000D01*
G75*
G02*
X131600000Y-56975000I0J150000D01*
G01*
X131600000Y-55675000D01*
G75*
G02*
X131750000Y-55525000I150000J0D01*
G01*
X132050000Y-55525000D01*
G75*
G02*
X132200000Y-55675000I0J-150000D01*
G01*
X132200000Y-56975000D01*
G75*
G02*
X132050000Y-57125000I-150000J0D01*
G01*
G37*
G36*
G01*
X132850000Y-57125000D02*
X132550000Y-57125000D01*
G75*
G02*
X132400000Y-56975000I0J150000D01*
G01*
X132400000Y-55675000D01*
G75*
G02*
X132550000Y-55525000I150000J0D01*
G01*
X132850000Y-55525000D01*
G75*
G02*
X133000000Y-55675000I0J-150000D01*
G01*
X133000000Y-56975000D01*
G75*
G02*
X132850000Y-57125000I-150000J0D01*
G01*
G37*
G36*
G01*
X133650000Y-57125000D02*
X133350000Y-57125000D01*
G75*
G02*
X133200000Y-56975000I0J150000D01*
G01*
X133200000Y-55675000D01*
G75*
G02*
X133350000Y-55525000I150000J0D01*
G01*
X133650000Y-55525000D01*
G75*
G02*
X133800000Y-55675000I0J-150000D01*
G01*
X133800000Y-56975000D01*
G75*
G02*
X133650000Y-57125000I-150000J0D01*
G01*
G37*
G36*
G01*
X134450000Y-57125000D02*
X134150000Y-57125000D01*
G75*
G02*
X134000000Y-56975000I0J150000D01*
G01*
X134000000Y-55675000D01*
G75*
G02*
X134150000Y-55525000I150000J0D01*
G01*
X134450000Y-55525000D01*
G75*
G02*
X134600000Y-55675000I0J-150000D01*
G01*
X134600000Y-56975000D01*
G75*
G02*
X134450000Y-57125000I-150000J0D01*
G01*
G37*
G36*
G01*
X136325000Y-58000000D02*
X135025000Y-58000000D01*
G75*
G02*
X134875000Y-57850000I0J150000D01*
G01*
X134875000Y-57550000D01*
G75*
G02*
X135025000Y-57400000I150000J0D01*
G01*
X136325000Y-57400000D01*
G75*
G02*
X136475000Y-57550000I0J-150000D01*
G01*
X136475000Y-57850000D01*
G75*
G02*
X136325000Y-58000000I-150000J0D01*
G01*
G37*
G36*
G01*
X136325000Y-58800000D02*
X135025000Y-58800000D01*
G75*
G02*
X134875000Y-58650000I0J150000D01*
G01*
X134875000Y-58350000D01*
G75*
G02*
X135025000Y-58200000I150000J0D01*
G01*
X136325000Y-58200000D01*
G75*
G02*
X136475000Y-58350000I0J-150000D01*
G01*
X136475000Y-58650000D01*
G75*
G02*
X136325000Y-58800000I-150000J0D01*
G01*
G37*
G36*
G01*
X136325000Y-59600000D02*
X135025000Y-59600000D01*
G75*
G02*
X134875000Y-59450000I0J150000D01*
G01*
X134875000Y-59150000D01*
G75*
G02*
X135025000Y-59000000I150000J0D01*
G01*
X136325000Y-59000000D01*
G75*
G02*
X136475000Y-59150000I0J-150000D01*
G01*
X136475000Y-59450000D01*
G75*
G02*
X136325000Y-59600000I-150000J0D01*
G01*
G37*
G36*
G01*
X136325000Y-60400000D02*
X135025000Y-60400000D01*
G75*
G02*
X134875000Y-60250000I0J150000D01*
G01*
X134875000Y-59950000D01*
G75*
G02*
X135025000Y-59800000I150000J0D01*
G01*
X136325000Y-59800000D01*
G75*
G02*
X136475000Y-59950000I0J-150000D01*
G01*
X136475000Y-60250000D01*
G75*
G02*
X136325000Y-60400000I-150000J0D01*
G01*
G37*
G36*
G01*
X136325000Y-61200000D02*
X135025000Y-61200000D01*
G75*
G02*
X134875000Y-61050000I0J150000D01*
G01*
X134875000Y-60750000D01*
G75*
G02*
X135025000Y-60600000I150000J0D01*
G01*
X136325000Y-60600000D01*
G75*
G02*
X136475000Y-60750000I0J-150000D01*
G01*
X136475000Y-61050000D01*
G75*
G02*
X136325000Y-61200000I-150000J0D01*
G01*
G37*
G36*
G01*
X136325000Y-62000000D02*
X135025000Y-62000000D01*
G75*
G02*
X134875000Y-61850000I0J150000D01*
G01*
X134875000Y-61550000D01*
G75*
G02*
X135025000Y-61400000I150000J0D01*
G01*
X136325000Y-61400000D01*
G75*
G02*
X136475000Y-61550000I0J-150000D01*
G01*
X136475000Y-61850000D01*
G75*
G02*
X136325000Y-62000000I-150000J0D01*
G01*
G37*
G36*
G01*
X136325000Y-62800000D02*
X135025000Y-62800000D01*
G75*
G02*
X134875000Y-62650000I0J150000D01*
G01*
X134875000Y-62350000D01*
G75*
G02*
X135025000Y-62200000I150000J0D01*
G01*
X136325000Y-62200000D01*
G75*
G02*
X136475000Y-62350000I0J-150000D01*
G01*
X136475000Y-62650000D01*
G75*
G02*
X136325000Y-62800000I-150000J0D01*
G01*
G37*
G36*
G01*
X136325000Y-63600000D02*
X135025000Y-63600000D01*
G75*
G02*
X134875000Y-63450000I0J150000D01*
G01*
X134875000Y-63150000D01*
G75*
G02*
X135025000Y-63000000I150000J0D01*
G01*
X136325000Y-63000000D01*
G75*
G02*
X136475000Y-63150000I0J-150000D01*
G01*
X136475000Y-63450000D01*
G75*
G02*
X136325000Y-63600000I-150000J0D01*
G01*
G37*
G36*
G01*
X134450000Y-65475000D02*
X134150000Y-65475000D01*
G75*
G02*
X134000000Y-65325000I0J150000D01*
G01*
X134000000Y-64025000D01*
G75*
G02*
X134150000Y-63875000I150000J0D01*
G01*
X134450000Y-63875000D01*
G75*
G02*
X134600000Y-64025000I0J-150000D01*
G01*
X134600000Y-65325000D01*
G75*
G02*
X134450000Y-65475000I-150000J0D01*
G01*
G37*
G36*
G01*
X133650000Y-65475000D02*
X133350000Y-65475000D01*
G75*
G02*
X133200000Y-65325000I0J150000D01*
G01*
X133200000Y-64025000D01*
G75*
G02*
X133350000Y-63875000I150000J0D01*
G01*
X133650000Y-63875000D01*
G75*
G02*
X133800000Y-64025000I0J-150000D01*
G01*
X133800000Y-65325000D01*
G75*
G02*
X133650000Y-65475000I-150000J0D01*
G01*
G37*
G36*
G01*
X132850000Y-65475000D02*
X132550000Y-65475000D01*
G75*
G02*
X132400000Y-65325000I0J150000D01*
G01*
X132400000Y-64025000D01*
G75*
G02*
X132550000Y-63875000I150000J0D01*
G01*
X132850000Y-63875000D01*
G75*
G02*
X133000000Y-64025000I0J-150000D01*
G01*
X133000000Y-65325000D01*
G75*
G02*
X132850000Y-65475000I-150000J0D01*
G01*
G37*
G36*
G01*
X132050000Y-65475000D02*
X131750000Y-65475000D01*
G75*
G02*
X131600000Y-65325000I0J150000D01*
G01*
X131600000Y-64025000D01*
G75*
G02*
X131750000Y-63875000I150000J0D01*
G01*
X132050000Y-63875000D01*
G75*
G02*
X132200000Y-64025000I0J-150000D01*
G01*
X132200000Y-65325000D01*
G75*
G02*
X132050000Y-65475000I-150000J0D01*
G01*
G37*
G36*
G01*
X131250000Y-65475000D02*
X130950000Y-65475000D01*
G75*
G02*
X130800000Y-65325000I0J150000D01*
G01*
X130800000Y-64025000D01*
G75*
G02*
X130950000Y-63875000I150000J0D01*
G01*
X131250000Y-63875000D01*
G75*
G02*
X131400000Y-64025000I0J-150000D01*
G01*
X131400000Y-65325000D01*
G75*
G02*
X131250000Y-65475000I-150000J0D01*
G01*
G37*
G36*
G01*
X130450000Y-65475000D02*
X130150000Y-65475000D01*
G75*
G02*
X130000000Y-65325000I0J150000D01*
G01*
X130000000Y-64025000D01*
G75*
G02*
X130150000Y-63875000I150000J0D01*
G01*
X130450000Y-63875000D01*
G75*
G02*
X130600000Y-64025000I0J-150000D01*
G01*
X130600000Y-65325000D01*
G75*
G02*
X130450000Y-65475000I-150000J0D01*
G01*
G37*
G36*
G01*
X129650000Y-65475000D02*
X129350000Y-65475000D01*
G75*
G02*
X129200000Y-65325000I0J150000D01*
G01*
X129200000Y-64025000D01*
G75*
G02*
X129350000Y-63875000I150000J0D01*
G01*
X129650000Y-63875000D01*
G75*
G02*
X129800000Y-64025000I0J-150000D01*
G01*
X129800000Y-65325000D01*
G75*
G02*
X129650000Y-65475000I-150000J0D01*
G01*
G37*
G36*
G01*
X128850000Y-65475000D02*
X128550000Y-65475000D01*
G75*
G02*
X128400000Y-65325000I0J150000D01*
G01*
X128400000Y-64025000D01*
G75*
G02*
X128550000Y-63875000I150000J0D01*
G01*
X128850000Y-63875000D01*
G75*
G02*
X129000000Y-64025000I0J-150000D01*
G01*
X129000000Y-65325000D01*
G75*
G02*
X128850000Y-65475000I-150000J0D01*
G01*
G37*
%TD*%
%TO.C,SW6*%
G36*
G01*
X122650000Y-68550000D02*
X124350000Y-68550000D01*
G75*
G02*
X124400000Y-68600000I0J-50000D01*
G01*
X124400000Y-69750000D01*
G75*
G02*
X124350000Y-69800000I-50000J0D01*
G01*
X122650000Y-69800000D01*
G75*
G02*
X122600000Y-69750000I0J50000D01*
G01*
X122600000Y-68600000D01*
G75*
G02*
X122650000Y-68550000I50000J0D01*
G01*
G37*
G36*
G01*
X122650000Y-64200000D02*
X124350000Y-64200000D01*
G75*
G02*
X124400000Y-64250000I0J-50000D01*
G01*
X124400000Y-65400000D01*
G75*
G02*
X124350000Y-65450000I-50000J0D01*
G01*
X122650000Y-65450000D01*
G75*
G02*
X122600000Y-65400000I0J50000D01*
G01*
X122600000Y-64250000D01*
G75*
G02*
X122650000Y-64200000I50000J0D01*
G01*
G37*
%TD*%
%TO.C,SW5*%
G36*
G01*
X135296591Y-67787499D02*
X135878025Y-69384976D01*
G75*
G02*
X135848141Y-69449062I-46985J-17101D01*
G01*
X134767495Y-69842385D01*
G75*
G02*
X134703409Y-69812501I-17101J46985D01*
G01*
X134121975Y-68215024D01*
G75*
G02*
X134151859Y-68150938I46985J17101D01*
G01*
X135232505Y-67757615D01*
G75*
G02*
X135296591Y-67787499I17101J-46985D01*
G01*
G37*
G36*
G01*
X139384253Y-66299711D02*
X139965687Y-67897188D01*
G75*
G02*
X139935803Y-67961274I-46985J-17101D01*
G01*
X138855157Y-68354597D01*
G75*
G02*
X138791071Y-68324713I-17101J46985D01*
G01*
X138209637Y-66727236D01*
G75*
G02*
X138239521Y-66663150I46985J17101D01*
G01*
X139320167Y-66269827D01*
G75*
G02*
X139384253Y-66299711I17101J-46985D01*
G01*
G37*
%TD*%
%TO.C,SW4*%
G36*
G01*
X117250000Y-65550000D02*
X115250000Y-65550000D01*
G75*
G02*
X115200000Y-65500000I0J50000D01*
G01*
X115200000Y-63500000D01*
G75*
G02*
X115250000Y-63450000I50000J0D01*
G01*
X117250000Y-63450000D01*
G75*
G02*
X117300000Y-63500000I0J-50000D01*
G01*
X117300000Y-65500000D01*
G75*
G02*
X117250000Y-65550000I-50000J0D01*
G01*
G37*
G36*
G01*
X117250000Y-71550000D02*
X115250000Y-71550000D01*
G75*
G02*
X115200000Y-71500000I0J50000D01*
G01*
X115200000Y-69500000D01*
G75*
G02*
X115250000Y-69450000I50000J0D01*
G01*
X117250000Y-69450000D01*
G75*
G02*
X117300000Y-69500000I0J-50000D01*
G01*
X117300000Y-71500000D01*
G75*
G02*
X117250000Y-71550000I-50000J0D01*
G01*
G37*
%TD*%
%TO.C,SW2*%
G36*
G01*
X107000000Y-69450000D02*
X109000000Y-69450000D01*
G75*
G02*
X109050000Y-69500000I0J-50000D01*
G01*
X109050000Y-71500000D01*
G75*
G02*
X109000000Y-71550000I-50000J0D01*
G01*
X107000000Y-71550000D01*
G75*
G02*
X106950000Y-71500000I0J50000D01*
G01*
X106950000Y-69500000D01*
G75*
G02*
X107000000Y-69450000I50000J0D01*
G01*
G37*
G36*
G01*
X107000000Y-63450000D02*
X109000000Y-63450000D01*
G75*
G02*
X109050000Y-63500000I0J-50000D01*
G01*
X109050000Y-65500000D01*
G75*
G02*
X109000000Y-65550000I-50000J0D01*
G01*
X107000000Y-65550000D01*
G75*
G02*
X106950000Y-65500000I0J50000D01*
G01*
X106950000Y-63500000D01*
G75*
G02*
X107000000Y-63450000I50000J0D01*
G01*
G37*
%TD*%
%TO.C,SW1*%
G36*
G01*
X93070000Y-52314000D02*
X93070000Y-53814000D01*
G75*
G02*
X93020000Y-53864000I-50000J0D01*
G01*
X92420000Y-53864000D01*
G75*
G02*
X92370000Y-53814000I0J50000D01*
G01*
X92370000Y-52314000D01*
G75*
G02*
X92420000Y-52264000I50000J0D01*
G01*
X93020000Y-52264000D01*
G75*
G02*
X93070000Y-52314000I0J-50000D01*
G01*
G37*
G36*
G01*
X94520000Y-52314000D02*
X94520000Y-53814000D01*
G75*
G02*
X94470000Y-53864000I-50000J0D01*
G01*
X93870000Y-53864000D01*
G75*
G02*
X93820000Y-53814000I0J50000D01*
G01*
X93820000Y-52314000D01*
G75*
G02*
X93870000Y-52264000I50000J0D01*
G01*
X94470000Y-52264000D01*
G75*
G02*
X94520000Y-52314000I0J-50000D01*
G01*
G37*
D11*
X93550000Y-50500000D03*
X96550000Y-50500000D03*
G36*
G01*
X97520000Y-52314000D02*
X97520000Y-53814000D01*
G75*
G02*
X97470000Y-53864000I-50000J0D01*
G01*
X96870000Y-53864000D01*
G75*
G02*
X96820000Y-53814000I0J50000D01*
G01*
X96820000Y-52314000D01*
G75*
G02*
X96870000Y-52264000I50000J0D01*
G01*
X97470000Y-52264000D01*
G75*
G02*
X97520000Y-52314000I0J-50000D01*
G01*
G37*
G36*
G01*
X91900000Y-51300000D02*
X91900000Y-52000000D01*
G75*
G02*
X91850000Y-52050000I-50000J0D01*
G01*
X90850000Y-52050000D01*
G75*
G02*
X90800000Y-52000000I0J50000D01*
G01*
X90800000Y-51300000D01*
G75*
G02*
X90850000Y-51250000I50000J0D01*
G01*
X91850000Y-51250000D01*
G75*
G02*
X91900000Y-51300000I0J-50000D01*
G01*
G37*
G36*
G01*
X99300000Y-51300000D02*
X99300000Y-52000000D01*
G75*
G02*
X99250000Y-52050000I-50000J0D01*
G01*
X98250000Y-52050000D01*
G75*
G02*
X98200000Y-52000000I0J50000D01*
G01*
X98200000Y-51300000D01*
G75*
G02*
X98250000Y-51250000I50000J0D01*
G01*
X99250000Y-51250000D01*
G75*
G02*
X99300000Y-51300000I0J-50000D01*
G01*
G37*
G36*
G01*
X91900000Y-49000000D02*
X91900000Y-49700000D01*
G75*
G02*
X91850000Y-49750000I-50000J0D01*
G01*
X90850000Y-49750000D01*
G75*
G02*
X90800000Y-49700000I0J50000D01*
G01*
X90800000Y-49000000D01*
G75*
G02*
X90850000Y-48950000I50000J0D01*
G01*
X91850000Y-48950000D01*
G75*
G02*
X91900000Y-49000000I0J-50000D01*
G01*
G37*
G36*
G01*
X99300000Y-49000000D02*
X99300000Y-49700000D01*
G75*
G02*
X99250000Y-49750000I-50000J0D01*
G01*
X98250000Y-49750000D01*
G75*
G02*
X98200000Y-49700000I0J50000D01*
G01*
X98200000Y-49000000D01*
G75*
G02*
X98250000Y-48950000I50000J0D01*
G01*
X99250000Y-48950000D01*
G75*
G02*
X99300000Y-49000000I0J-50000D01*
G01*
G37*
%TD*%
%TO.C,R12*%
G36*
G01*
X109700000Y-59981250D02*
X109700000Y-59418750D01*
G75*
G02*
X109943750Y-59175000I243750J0D01*
G01*
X110431250Y-59175000D01*
G75*
G02*
X110675000Y-59418750I0J-243750D01*
G01*
X110675000Y-59981250D01*
G75*
G02*
X110431250Y-60225000I-243750J0D01*
G01*
X109943750Y-60225000D01*
G75*
G02*
X109700000Y-59981250I0J243750D01*
G01*
G37*
G36*
G01*
X108125000Y-59981250D02*
X108125000Y-59418750D01*
G75*
G02*
X108368750Y-59175000I243750J0D01*
G01*
X108856250Y-59175000D01*
G75*
G02*
X109100000Y-59418750I0J-243750D01*
G01*
X109100000Y-59981250D01*
G75*
G02*
X108856250Y-60225000I-243750J0D01*
G01*
X108368750Y-60225000D01*
G75*
G02*
X108125000Y-59981250I0J243750D01*
G01*
G37*
%TD*%
%TO.C,R11*%
G36*
G01*
X113000000Y-59618750D02*
X113000000Y-60181250D01*
G75*
G02*
X112756250Y-60425000I-243750J0D01*
G01*
X112268750Y-60425000D01*
G75*
G02*
X112025000Y-60181250I0J243750D01*
G01*
X112025000Y-59618750D01*
G75*
G02*
X112268750Y-59375000I243750J0D01*
G01*
X112756250Y-59375000D01*
G75*
G02*
X113000000Y-59618750I0J-243750D01*
G01*
G37*
G36*
G01*
X114575000Y-59618750D02*
X114575000Y-60181250D01*
G75*
G02*
X114331250Y-60425000I-243750J0D01*
G01*
X113843750Y-60425000D01*
G75*
G02*
X113600000Y-60181250I0J243750D01*
G01*
X113600000Y-59618750D01*
G75*
G02*
X113843750Y-59375000I243750J0D01*
G01*
X114331250Y-59375000D01*
G75*
G02*
X114575000Y-59618750I0J-243750D01*
G01*
G37*
%TD*%
%TO.C,R10*%
G36*
G01*
X119468750Y-59050000D02*
X120031250Y-59050000D01*
G75*
G02*
X120275000Y-59293750I0J-243750D01*
G01*
X120275000Y-59781250D01*
G75*
G02*
X120031250Y-60025000I-243750J0D01*
G01*
X119468750Y-60025000D01*
G75*
G02*
X119225000Y-59781250I0J243750D01*
G01*
X119225000Y-59293750D01*
G75*
G02*
X119468750Y-59050000I243750J0D01*
G01*
G37*
G36*
G01*
X119468750Y-57475000D02*
X120031250Y-57475000D01*
G75*
G02*
X120275000Y-57718750I0J-243750D01*
G01*
X120275000Y-58206250D01*
G75*
G02*
X120031250Y-58450000I-243750J0D01*
G01*
X119468750Y-58450000D01*
G75*
G02*
X119225000Y-58206250I0J243750D01*
G01*
X119225000Y-57718750D01*
G75*
G02*
X119468750Y-57475000I243750J0D01*
G01*
G37*
%TD*%
%TO.C,R9*%
G36*
G01*
X117968750Y-59050000D02*
X118531250Y-59050000D01*
G75*
G02*
X118775000Y-59293750I0J-243750D01*
G01*
X118775000Y-59781250D01*
G75*
G02*
X118531250Y-60025000I-243750J0D01*
G01*
X117968750Y-60025000D01*
G75*
G02*
X117725000Y-59781250I0J243750D01*
G01*
X117725000Y-59293750D01*
G75*
G02*
X117968750Y-59050000I243750J0D01*
G01*
G37*
G36*
G01*
X117968750Y-57475000D02*
X118531250Y-57475000D01*
G75*
G02*
X118775000Y-57718750I0J-243750D01*
G01*
X118775000Y-58206250D01*
G75*
G02*
X118531250Y-58450000I-243750J0D01*
G01*
X117968750Y-58450000D01*
G75*
G02*
X117725000Y-58206250I0J243750D01*
G01*
X117725000Y-57718750D01*
G75*
G02*
X117968750Y-57475000I243750J0D01*
G01*
G37*
%TD*%
%TO.C,R8*%
G36*
G01*
X116468750Y-59050000D02*
X117031250Y-59050000D01*
G75*
G02*
X117275000Y-59293750I0J-243750D01*
G01*
X117275000Y-59781250D01*
G75*
G02*
X117031250Y-60025000I-243750J0D01*
G01*
X116468750Y-60025000D01*
G75*
G02*
X116225000Y-59781250I0J243750D01*
G01*
X116225000Y-59293750D01*
G75*
G02*
X116468750Y-59050000I243750J0D01*
G01*
G37*
G36*
G01*
X116468750Y-57475000D02*
X117031250Y-57475000D01*
G75*
G02*
X117275000Y-57718750I0J-243750D01*
G01*
X117275000Y-58206250D01*
G75*
G02*
X117031250Y-58450000I-243750J0D01*
G01*
X116468750Y-58450000D01*
G75*
G02*
X116225000Y-58206250I0J243750D01*
G01*
X116225000Y-57718750D01*
G75*
G02*
X116468750Y-57475000I243750J0D01*
G01*
G37*
%TD*%
%TO.C,R5*%
G36*
G01*
X135724883Y-52685719D02*
X135170929Y-52783396D01*
G75*
G02*
X134888555Y-52585676I-42327J240047D01*
G01*
X134803901Y-52105583D01*
G75*
G02*
X135001621Y-51823209I240047J42327D01*
G01*
X135555575Y-51725532D01*
G75*
G02*
X135837949Y-51923252I42327J-240047D01*
G01*
X135922603Y-52403345D01*
G75*
G02*
X135724883Y-52685719I-240047J-42327D01*
G01*
G37*
G36*
G01*
X135998379Y-54236791D02*
X135444425Y-54334468D01*
G75*
G02*
X135162051Y-54136748I-42327J240047D01*
G01*
X135077397Y-53656655D01*
G75*
G02*
X135275117Y-53374281I240047J42327D01*
G01*
X135829071Y-53276604D01*
G75*
G02*
X136111445Y-53474324I42327J-240047D01*
G01*
X136196099Y-53954417D01*
G75*
G02*
X135998379Y-54236791I-240047J-42327D01*
G01*
G37*
%TD*%
%TO.C,Q1*%
G36*
G01*
X104400000Y-59300000D02*
X104400000Y-60100000D01*
G75*
G02*
X104350000Y-60150000I-50000J0D01*
G01*
X103450000Y-60150000D01*
G75*
G02*
X103400000Y-60100000I0J50000D01*
G01*
X103400000Y-59300000D01*
G75*
G02*
X103450000Y-59250000I50000J0D01*
G01*
X104350000Y-59250000D01*
G75*
G02*
X104400000Y-59300000I0J-50000D01*
G01*
G37*
G36*
G01*
X106400000Y-58350000D02*
X106400000Y-59150000D01*
G75*
G02*
X106350000Y-59200000I-50000J0D01*
G01*
X105450000Y-59200000D01*
G75*
G02*
X105400000Y-59150000I0J50000D01*
G01*
X105400000Y-58350000D01*
G75*
G02*
X105450000Y-58300000I50000J0D01*
G01*
X106350000Y-58300000D01*
G75*
G02*
X106400000Y-58350000I0J-50000D01*
G01*
G37*
G36*
G01*
X106400000Y-60250000D02*
X106400000Y-61050000D01*
G75*
G02*
X106350000Y-61100000I-50000J0D01*
G01*
X105450000Y-61100000D01*
G75*
G02*
X105400000Y-61050000I0J50000D01*
G01*
X105400000Y-60250000D01*
G75*
G02*
X105450000Y-60200000I50000J0D01*
G01*
X106350000Y-60200000D01*
G75*
G02*
X106400000Y-60250000I0J-50000D01*
G01*
G37*
%TD*%
D12*
%TO.C,M1*%
X100645304Y-52246219D03*
X101171225Y-50283458D03*
%TD*%
%TO.C,D6*%
G36*
G01*
X141948822Y-64462680D02*
X141667573Y-64949820D01*
G75*
G02*
X141334604Y-65039039I-211094J121875D01*
G01*
X140912416Y-64795289D01*
G75*
G02*
X140823197Y-64462320I121875J211094D01*
G01*
X141104447Y-63975180D01*
G75*
G02*
X141437416Y-63885961I211094J-121875D01*
G01*
X141859604Y-64129711D01*
G75*
G02*
X141948823Y-64462680I-121875J-211094D01*
G01*
G37*
G36*
G01*
X143312812Y-65250180D02*
X143031563Y-65737320D01*
G75*
G02*
X142698594Y-65826539I-211094J121875D01*
G01*
X142276406Y-65582789D01*
G75*
G02*
X142187187Y-65249820I121875J211094D01*
G01*
X142468437Y-64762680D01*
G75*
G02*
X142801406Y-64673461I211094J-121875D01*
G01*
X143223594Y-64917211D01*
G75*
G02*
X143312813Y-65250180I-121875J-211094D01*
G01*
G37*
%TD*%
%TO.C,D5*%
G36*
G01*
X133218750Y-50550000D02*
X133781250Y-50550000D01*
G75*
G02*
X134025000Y-50793750I0J-243750D01*
G01*
X134025000Y-51281250D01*
G75*
G02*
X133781250Y-51525000I-243750J0D01*
G01*
X133218750Y-51525000D01*
G75*
G02*
X132975000Y-51281250I0J243750D01*
G01*
X132975000Y-50793750D01*
G75*
G02*
X133218750Y-50550000I243750J0D01*
G01*
G37*
G36*
G01*
X133218750Y-48975000D02*
X133781250Y-48975000D01*
G75*
G02*
X134025000Y-49218750I0J-243750D01*
G01*
X134025000Y-49706250D01*
G75*
G02*
X133781250Y-49950000I-243750J0D01*
G01*
X133218750Y-49950000D01*
G75*
G02*
X132975000Y-49706250I0J243750D01*
G01*
X132975000Y-49218750D01*
G75*
G02*
X133218750Y-48975000I243750J0D01*
G01*
G37*
%TD*%
%TO.C,D4*%
G36*
G01*
X138112680Y-51776178D02*
X138599820Y-52057427D01*
G75*
G02*
X138689039Y-52390396I-121875J-211094D01*
G01*
X138445289Y-52812584D01*
G75*
G02*
X138112320Y-52901803I-211094J121875D01*
G01*
X137625180Y-52620553D01*
G75*
G02*
X137535961Y-52287584I121875J211094D01*
G01*
X137779711Y-51865396D01*
G75*
G02*
X138112680Y-51776177I211094J-121875D01*
G01*
G37*
G36*
G01*
X138900180Y-50412188D02*
X139387320Y-50693437D01*
G75*
G02*
X139476539Y-51026406I-121875J-211094D01*
G01*
X139232789Y-51448594D01*
G75*
G02*
X138899820Y-51537813I-211094J121875D01*
G01*
X138412680Y-51256563D01*
G75*
G02*
X138323461Y-50923594I121875J211094D01*
G01*
X138567211Y-50501406D01*
G75*
G02*
X138900180Y-50412187I211094J-121875D01*
G01*
G37*
%TD*%
%TO.C,D3*%
G36*
G01*
X141617572Y-55100180D02*
X141898823Y-55587320D01*
G75*
G02*
X141809604Y-55920289I-211094J-121875D01*
G01*
X141387416Y-56164039D01*
G75*
G02*
X141054447Y-56074820I-121875J211094D01*
G01*
X140773197Y-55587680D01*
G75*
G02*
X140862416Y-55254711I211094J121875D01*
G01*
X141284604Y-55010961D01*
G75*
G02*
X141617573Y-55100180I121875J-211094D01*
G01*
G37*
G36*
G01*
X142981562Y-54312680D02*
X143262813Y-54799820D01*
G75*
G02*
X143173594Y-55132789I-211094J-121875D01*
G01*
X142751406Y-55376539D01*
G75*
G02*
X142418437Y-55287320I-121875J211094D01*
G01*
X142137187Y-54800180D01*
G75*
G02*
X142226406Y-54467211I211094J121875D01*
G01*
X142648594Y-54223461D01*
G75*
G02*
X142981563Y-54312680I121875J-211094D01*
G01*
G37*
%TD*%
%TO.C,D2*%
G36*
G01*
X143012500Y-59818750D02*
X143012500Y-60381250D01*
G75*
G02*
X142768750Y-60625000I-243750J0D01*
G01*
X142281250Y-60625000D01*
G75*
G02*
X142037500Y-60381250I0J243750D01*
G01*
X142037500Y-59818750D01*
G75*
G02*
X142281250Y-59575000I243750J0D01*
G01*
X142768750Y-59575000D01*
G75*
G02*
X143012500Y-59818750I0J-243750D01*
G01*
G37*
G36*
G01*
X144587500Y-59818750D02*
X144587500Y-60381250D01*
G75*
G02*
X144343750Y-60625000I-243750J0D01*
G01*
X143856250Y-60625000D01*
G75*
G02*
X143612500Y-60381250I0J243750D01*
G01*
X143612500Y-59818750D01*
G75*
G02*
X143856250Y-59575000I243750J0D01*
G01*
X144343750Y-59575000D01*
G75*
G02*
X144587500Y-59818750I0J-243750D01*
G01*
G37*
%TD*%
%TO.C,D1*%
G36*
G01*
X119350000Y-55900000D02*
X119350000Y-53900000D01*
G75*
G02*
X119400000Y-53850000I50000J0D01*
G01*
X120500000Y-53850000D01*
G75*
G02*
X120550000Y-53900000I0J-50000D01*
G01*
X120550000Y-55900000D01*
G75*
G02*
X120500000Y-55950000I-50000J0D01*
G01*
X119400000Y-55950000D01*
G75*
G02*
X119350000Y-55900000I0J50000D01*
G01*
G37*
G36*
G01*
X117650000Y-55900000D02*
X117650000Y-53900000D01*
G75*
G02*
X117700000Y-53850000I50000J0D01*
G01*
X118800000Y-53850000D01*
G75*
G02*
X118850000Y-53900000I0J-50000D01*
G01*
X118850000Y-55900000D01*
G75*
G02*
X118800000Y-55950000I-50000J0D01*
G01*
X117700000Y-55950000D01*
G75*
G02*
X117650000Y-55900000I0J50000D01*
G01*
G37*
G36*
G01*
X115950000Y-55900000D02*
X115950000Y-53900000D01*
G75*
G02*
X116000000Y-53850000I50000J0D01*
G01*
X117100000Y-53850000D01*
G75*
G02*
X117150000Y-53900000I0J-50000D01*
G01*
X117150000Y-55900000D01*
G75*
G02*
X117100000Y-55950000I-50000J0D01*
G01*
X116000000Y-55950000D01*
G75*
G02*
X115950000Y-55900000I0J50000D01*
G01*
G37*
G36*
G01*
X115950000Y-51100000D02*
X115950000Y-49100000D01*
G75*
G02*
X116000000Y-49050000I50000J0D01*
G01*
X117100000Y-49050000D01*
G75*
G02*
X117150000Y-49100000I0J-50000D01*
G01*
X117150000Y-51100000D01*
G75*
G02*
X117100000Y-51150000I-50000J0D01*
G01*
X116000000Y-51150000D01*
G75*
G02*
X115950000Y-51100000I0J50000D01*
G01*
G37*
G36*
G01*
X117650000Y-51100000D02*
X117650000Y-49100000D01*
G75*
G02*
X117700000Y-49050000I50000J0D01*
G01*
X118800000Y-49050000D01*
G75*
G02*
X118850000Y-49100000I0J-50000D01*
G01*
X118850000Y-51100000D01*
G75*
G02*
X118800000Y-51150000I-50000J0D01*
G01*
X117700000Y-51150000D01*
G75*
G02*
X117650000Y-51100000I0J50000D01*
G01*
G37*
G36*
G01*
X119350000Y-51100000D02*
X119350000Y-49100000D01*
G75*
G02*
X119400000Y-49050000I50000J0D01*
G01*
X120500000Y-49050000D01*
G75*
G02*
X120550000Y-49100000I0J-50000D01*
G01*
X120550000Y-51100000D01*
G75*
G02*
X120500000Y-51150000I-50000J0D01*
G01*
X119400000Y-51150000D01*
G75*
G02*
X119350000Y-51100000I0J50000D01*
G01*
G37*
%TD*%
%TO.C,C2*%
G36*
G01*
X131487500Y-69968750D02*
X131487500Y-70531250D01*
G75*
G02*
X131243750Y-70775000I-243750J0D01*
G01*
X130756250Y-70775000D01*
G75*
G02*
X130512500Y-70531250I0J243750D01*
G01*
X130512500Y-69968750D01*
G75*
G02*
X130756250Y-69725000I243750J0D01*
G01*
X131243750Y-69725000D01*
G75*
G02*
X131487500Y-69968750I0J-243750D01*
G01*
G37*
G36*
G01*
X133062500Y-69968750D02*
X133062500Y-70531250D01*
G75*
G02*
X132818750Y-70775000I-243750J0D01*
G01*
X132331250Y-70775000D01*
G75*
G02*
X132087500Y-70531250I0J243750D01*
G01*
X132087500Y-69968750D01*
G75*
G02*
X132331250Y-69725000I243750J0D01*
G01*
X132818750Y-69725000D01*
G75*
G02*
X133062500Y-69968750I0J-243750D01*
G01*
G37*
%TD*%
%TO.C,C1*%
G36*
G01*
X128550000Y-70531250D02*
X128550000Y-69968750D01*
G75*
G02*
X128793750Y-69725000I243750J0D01*
G01*
X129281250Y-69725000D01*
G75*
G02*
X129525000Y-69968750I0J-243750D01*
G01*
X129525000Y-70531250D01*
G75*
G02*
X129281250Y-70775000I-243750J0D01*
G01*
X128793750Y-70775000D01*
G75*
G02*
X128550000Y-70531250I0J243750D01*
G01*
G37*
G36*
G01*
X126975000Y-70531250D02*
X126975000Y-69968750D01*
G75*
G02*
X127218750Y-69725000I243750J0D01*
G01*
X127706250Y-69725000D01*
G75*
G02*
X127950000Y-69968750I0J-243750D01*
G01*
X127950000Y-70531250D01*
G75*
G02*
X127706250Y-70775000I-243750J0D01*
G01*
X127218750Y-70775000D01*
G75*
G02*
X126975000Y-70531250I0J243750D01*
G01*
G37*
%TD*%
%TO.C,BT1*%
G36*
G01*
X78300000Y-57950000D02*
X82300000Y-57950000D01*
G75*
G02*
X82350000Y-58000000I0J-50000D01*
G01*
X82350000Y-62000000D01*
G75*
G02*
X82300000Y-62050000I-50000J0D01*
G01*
X78300000Y-62050000D01*
G75*
G02*
X78250000Y-62000000I0J50000D01*
G01*
X78250000Y-58000000D01*
G75*
G02*
X78300000Y-57950000I50000J0D01*
G01*
G37*
G36*
G01*
X77760000Y-70375000D02*
X82840000Y-70375000D01*
G75*
G02*
X82890000Y-70425000I0J-50000D01*
G01*
X82890000Y-71575000D01*
G75*
G02*
X82840000Y-71625000I-50000J0D01*
G01*
X77760000Y-71625000D01*
G75*
G02*
X77710000Y-71575000I0J50000D01*
G01*
X77710000Y-70425000D01*
G75*
G02*
X77760000Y-70375000I50000J0D01*
G01*
G37*
G36*
G01*
X77760000Y-48375000D02*
X82840000Y-48375000D01*
G75*
G02*
X82890000Y-48425000I0J-50000D01*
G01*
X82890000Y-49575000D01*
G75*
G02*
X82840000Y-49625000I-50000J0D01*
G01*
X77760000Y-49625000D01*
G75*
G02*
X77710000Y-49575000I0J50000D01*
G01*
X77710000Y-48425000D01*
G75*
G02*
X77760000Y-48375000I50000J0D01*
G01*
G37*
%TD*%
M02*
